<svg width="42" height="40" viewBox="0 0 42 40" fill="none" xmlns="http://www.w3.org/2000/svg">
<path d="M37.9769 39.3115H34.0097C33.0293 39.3115 32.1344 39.1453 31.325 38.813C30.527 38.4807 29.843 38.0051 29.273 37.3863C28.703 36.779 28.2584 36.0456 27.9392 35.1862C27.6314 34.3153 27.4775 33.347 27.4775 32.2813C27.4775 31.2156 27.6371 30.2415 27.9563 29.3592C28.2755 28.4768 28.7258 27.7205 29.3072 27.0902C29.8886 26.4485 30.5897 25.95 31.4105 25.5948C32.2313 25.2396 33.149 25.062 34.1636 25.062C34.9616 25.062 35.7425 25.188 36.5063 25.4401C37.2701 25.6807 37.9427 26.0646 38.5241 26.5918C39.1169 27.1189 39.59 27.8064 39.9434 28.6544C40.3082 29.4909 40.4906 30.4993 40.4906 31.6796C40.4906 32.2755 40.4336 32.837 40.3196 33.3642C40.217 33.8913 40.046 34.3554 39.8066 34.7564C39.5672 35.1461 39.2594 35.4612 38.8832 35.7018C38.507 35.931 38.051 36.0456 37.5152 36.0456C36.968 36.0456 36.5576 35.9081 36.284 35.6331C36.0104 35.3581 35.8451 35.0028 35.7881 34.5674H35.7197C35.4917 35.0257 35.2124 35.3867 34.8818 35.6503C34.5512 35.9138 34.1237 36.0456 33.5993 36.0456C33.2003 36.0456 32.8184 35.9711 32.4536 35.8222C32.1002 35.6617 31.7867 35.4268 31.5131 35.1174C31.2395 34.808 31.0229 34.4184 30.8633 33.9486C30.7037 33.4673 30.6239 32.9058 30.6239 32.2641C30.6239 31.6224 30.7037 31.0666 30.8633 30.5968C31.0229 30.1155 31.2395 29.7201 31.5131 29.4107C31.7867 29.1013 32.1002 28.8721 32.4536 28.7232C32.8184 28.5627 33.2003 28.4825 33.5993 28.4825C34.1237 28.4825 34.5398 28.6143 34.8476 28.8779C35.1554 29.13 35.3891 29.4394 35.5487 29.8061H35.6171V28.6372H36.797V33.8626C36.797 34.3095 36.8711 34.6132 37.0193 34.7736C37.1789 34.9226 37.4183 34.9971 37.7375 34.9971C38.2733 34.9971 38.678 34.7221 38.9516 34.172C39.2252 33.622 39.362 32.8657 39.362 31.9031V31.1124C39.362 30.3561 39.2252 29.6686 38.9516 29.0498C38.6894 28.431 38.3246 27.9038 37.8572 27.4684C37.3898 27.0329 36.8369 26.6949 36.1985 26.4542C35.5601 26.2136 34.8761 26.0933 34.1465 26.0933C33.3257 26.0933 32.579 26.2365 31.9064 26.523C31.2338 26.8095 30.6524 27.2106 30.1622 27.7262C29.672 28.2304 29.2901 28.8263 29.0165 29.5139C28.7543 30.1899 28.6232 30.9233 28.6232 31.714V32.7282C28.6232 33.5418 28.7543 34.2866 29.0165 34.9627C29.2787 35.6388 29.6435 36.2232 30.1109 36.716C30.5897 37.2087 31.1597 37.5869 31.8209 37.8504C32.4821 38.1255 33.2174 38.263 34.0268 38.263H37.9769V39.3115ZM33.8387 34.9111C34.4429 34.9111 34.8875 34.7679 35.1725 34.4814C35.4689 34.1949 35.6171 33.7881 35.6171 33.261V31.164C35.6171 30.7285 35.4746 30.3618 35.1896 30.0639C34.9046 29.766 34.4543 29.617 33.8387 29.617C33.2231 29.617 32.7728 29.7946 32.4878 30.1498C32.2028 30.5051 32.0603 30.9806 32.0603 31.5765V32.9516C32.0603 33.5475 32.2028 34.0231 32.4878 34.3783C32.7728 34.7335 33.2231 34.9111 33.8387 34.9111Z" fill="#1A1A1A"/>
<path d="M41 24.3666V12.7734M41 12.7734L21 27.8513M41 12.7734L35.3333 17.1292L21 27.8513M41 12.7734L36.6665 10.2111M21 27.8513L1 12.7734M21 27.8513L6.66667 17.1292L1 12.7734M1 12.7734V38.9084H27.4833M1 12.7734L6.17907 9.71106M35.3333 9.42274L36.6665 10.2111M6.66667 9.42274L6.17907 9.71106M28.3333 5.0669L27.7343 4.71106M13.6667 5.0669L14.2658 4.71106M6.17907 9.71106L14.2658 4.71106M14.2658 4.71106L21 0.71106L27.7343 4.71106M27.7343 4.71106L36.6665 10.2111" stroke="#1A1A1A" stroke-linejoin="round"/>
</svg>
