<svg width="111" height="32" viewBox="0 0 111 32" fill="none" xmlns="http://www.w3.org/2000/svg">
<g clip-path="url(#clip0_23_7877)">
<path d="M6.70522 10.5543C5.08697 10.8434 4.10433 12.8954 4.10433 15.4669C4.10433 18.4142 5.63593 20.9283 8.46766 20.9283C9.23814 20.9781 10.0089 20.835 10.7102 20.5121C11.4115 20.1892 12.0213 19.6966 12.4844 19.0789L12.6288 19.1945C12.2097 20.2553 11.4874 21.1691 10.5521 21.8218C9.61672 22.4745 8.50982 22.8371 7.36959 22.8645C3.75736 22.8645 1.64795 20.0325 1.64795 16.6811C1.64795 13.1555 4.21975 10.6125 6.70498 10.3234V10.5546L6.70522 10.5543ZM5.17362 14.6578V14.4556L9.59497 14.1089C9.47932 12.2889 8.98831 10.6124 7.57197 10.4968V10.2656C8.75078 10.2735 9.8816 10.7336 10.7311 11.5509C11.5806 12.3682 12.0841 13.4803 12.1375 14.658L5.17362 14.6578Z" fill="black"/>
<path d="M13.9302 6.04612C13.9491 5.72807 13.8875 5.41037 13.7511 5.12243C13.6148 4.83449 13.4079 4.5856 13.1498 4.39878C12.9249 4.19909 12.6718 4.03359 12.3987 3.90762V3.73441L16.4444 2.28906L16.5021 2.31792C16.4731 3.50294 16.4153 5.20767 16.4153 6.36353V19.7432C16.4153 21.6215 16.7911 22.1994 18.3225 22.4017V22.6329H12.052V22.4017C13.6702 22.1995 13.9302 21.6793 13.9302 19.7432V6.04651V6.04612Z" fill="black"/>
<path d="M19.5361 14.1663C19.5529 13.8362 19.4909 13.5068 19.3552 13.2053C19.2195 12.9038 19.0141 12.6389 18.7559 12.4325C18.4919 12.2128 18.2006 12.0282 17.8892 11.8833V11.7098L22.0503 10.2363L22.1079 10.2652C22.079 11.4498 22.0212 13.1548 22.0212 14.3107V19.7433C22.0212 21.6217 22.4837 22.1995 24.0154 22.4018V22.6331H17.658V22.4018C19.2761 22.1996 19.5361 21.6794 19.5361 19.7433V14.1667V14.1663ZM20.7208 4.08105C21.1366 4.09071 21.5323 4.26215 21.8238 4.55894C22.1152 4.85573 22.2794 5.25448 22.2815 5.67044C22.2784 6.08339 22.1129 6.47852 21.8209 6.77051C21.5289 7.0625 21.1337 7.22792 20.7208 7.23106C20.3094 7.22295 19.9172 7.05592 19.6264 6.76497C19.3355 6.47403 19.1685 6.08177 19.1605 5.67044C19.1676 5.2561 19.3333 4.86025 19.6236 4.56452C19.9139 4.26879 20.3066 4.09574 20.7208 4.08105Z" fill="black"/>
<path d="M24.767 19.8007V11.6519H23.1775V11.3631L26.992 7.46191L27.2521 7.5484V10.5537H31.3843L31.0665 11.6519H27.2521V18.876C27.2521 20.3789 27.7722 21.3325 29.4771 21.3325C30.1976 21.3306 30.9154 21.2433 31.6154 21.0724V21.1877C31.1032 21.7283 30.4842 22.1564 29.7977 22.445C29.1112 22.7336 28.3722 22.8762 27.6276 22.8639C25.4313 22.8639 24.7667 21.766 24.7667 19.8007H24.767Z" fill="black"/>
<path d="M35.8057 10.5544C34.1873 10.8435 33.2051 12.8955 33.2051 15.467C33.2051 18.4144 34.7364 20.9285 37.5684 20.9285C38.3389 20.9783 39.1096 20.8352 39.8109 20.5123C40.5122 20.1894 41.1219 19.6968 41.585 19.079L41.7298 19.1947C41.3106 20.2554 40.5882 21.1692 39.6528 21.8219C38.7174 22.4746 37.6105 22.8372 36.4703 22.8646C32.8583 22.8646 30.7488 20.0326 30.7488 16.6813C30.7488 13.1556 33.3206 10.6127 35.8057 10.3236V10.5547L35.8057 10.5544ZM34.2741 14.658V14.4557L38.6953 14.1089C38.5796 12.2889 38.0886 10.6124 36.6726 10.4968V10.2656C37.8514 10.2735 38.9822 10.7335 39.8318 11.5508C40.6813 12.3681 41.1847 13.4803 41.2381 14.658H34.2741Z" fill="black"/>
<path d="M46.4124 11.6519H44.534L44.7942 11.0453L46.9614 10.5538C46.9614 10.5538 47.3951 9.91818 47.8861 9.28258L49.1864 7.54813C49.4175 7.25927 50.1111 7.43279 49.9953 7.77929C49.8507 8.15519 48.9842 10.5534 48.9842 10.5534H52.1915L51.7582 11.6516H48.6083L45.3721 20.6678L45.4587 20.7255C46.9057 19.8527 48.1397 18.668 49.0708 17.2578L49.2442 17.3445C48.6666 18.7781 47.8124 20.0841 46.7302 21.1877C45.7766 22.1704 44.8519 22.8639 44.0717 22.8639C43.9245 22.8658 43.7785 22.8377 43.6425 22.7813C43.5065 22.7249 43.3835 22.6415 43.2807 22.5361C43.178 22.4307 43.0979 22.3054 43.0451 22.168C42.9923 22.0306 42.968 21.8839 42.9737 21.7368C43.0597 20.8283 43.294 19.94 43.6672 19.1072C44.5629 16.7379 46.4123 11.6519 46.4123 11.6519H46.4124Z" fill="black"/>
<path d="M54.1863 12.4036C54.1932 12.3565 54.1889 12.3085 54.1739 12.2633C54.1589 12.2181 54.1335 12.1771 54.0998 12.1434C54.0662 12.1098 54.0251 12.0845 53.9799 12.0695C53.9347 12.0545 53.8866 12.0503 53.8395 12.0572C53.6472 12.0778 53.4611 12.137 53.2923 12.2313C53.1235 12.3256 52.9754 12.4531 52.8571 12.606C52.2941 13.2276 51.8792 13.9686 51.6434 14.7734L51.4412 14.6866C51.9614 12.346 53.5216 10.2654 55.1111 10.2654C55.293 10.2405 55.4781 10.2561 55.6533 10.3109C55.8285 10.3658 55.9894 10.4586 56.1246 10.5828C56.2598 10.707 56.3659 10.8594 56.4354 11.0293C56.5049 11.1993 56.5361 11.3824 56.5267 11.5657C56.3739 12.9257 56.0336 14.258 55.5156 15.5246C54.5908 18.2118 53.7817 20.4658 53.2615 21.6795C53.1591 22.0106 52.9571 22.302 52.683 22.514C52.4089 22.726 52.0761 22.8483 51.73 22.8642C50.8921 22.8642 50.632 22.3152 50.8053 21.8531C51.2097 20.7551 52.9441 16.305 53.4061 15.0914C53.8151 14.2456 54.0788 13.337 54.1862 12.4037L54.1863 12.4036ZM58.6366 13.9066C58.9128 13.5028 59.0818 13.0354 59.1276 12.5484C59.1276 12.3462 59.0696 12.1439 58.8097 12.1439C58.203 12.1439 57.3362 13.6177 56.4978 15.5539L56.2956 15.4961C57.3067 12.6643 58.3184 10.3234 59.9944 10.3234C60.1274 10.3306 60.2576 10.3641 60.3776 10.4218C60.4976 10.4795 60.605 10.5604 60.6936 10.6598C60.7822 10.7592 60.8504 10.8751 60.8941 11.0009C60.9377 11.1267 60.9561 11.2598 60.9482 11.3928C60.9482 12.5486 59.7632 13.7622 58.8675 14.1669L58.6365 13.9069L58.6366 13.9066Z" fill="black"/>
<path d="M59.3591 20.1764C59.3591 20.552 59.4743 20.8412 59.8791 20.8412C60.515 20.8412 61.526 19.6562 62.162 18.9627L62.3352 19.0781C61.6129 20.4363 59.7346 22.8637 58.1451 22.8637C57.4517 22.8637 56.9314 22.2858 56.9314 21.3323C56.9314 18.8758 60.0235 14.917 62.8556 12.8364L63.0286 12.9811C61.9309 14.3103 59.3591 18.5002 59.3591 20.1764ZM67.9991 18.038L68.1725 18.1247C67.479 20.3208 65.1093 22.8637 63.6934 22.8637C63.5654 22.8748 63.4365 22.8578 63.3158 22.8138C63.195 22.7699 63.0854 22.7 62.9945 22.6091C62.9037 22.5183 62.8338 22.4086 62.7898 22.2879C62.7459 22.1671 62.7289 22.0382 62.74 21.9102C62.8501 20.8533 63.0928 19.8145 63.4624 18.8182C64.4158 15.9286 65.6872 11.9985 65.6872 11.9985C65.5109 11.937 65.325 11.9076 65.1384 11.9117C64.6558 11.9363 64.1878 12.0857 63.7803 12.3453L63.6068 12.2009C64.4773 11.4883 65.5268 11.0284 66.6408 10.8715C67.0743 10.2648 67.5366 9.86035 67.9991 9.86035C68.2881 9.86035 68.4903 9.9183 68.4903 10.1783C68.4657 10.3949 68.4173 10.6082 68.3458 10.8141C67.9991 11.8253 66.3235 16.7957 65.5429 19.3097C65.4073 19.694 65.3104 20.0909 65.2536 20.4944C65.2536 20.8123 65.3985 20.8416 65.5429 20.8416C66.1208 20.8416 67.4503 19.1071 67.9991 18.0384V18.038Z" fill="black"/>
<path d="M73.6629 12.4037C73.6629 14.1955 72.6227 19.1658 72.3916 20.2638L69.646 22.8067L69.2997 22.5466C70.3687 19.5993 71.3802 15.2355 71.3802 12.9528C71.3802 11.8549 70.7443 11.7395 70.4264 11.7395C69.8427 11.7778 69.2862 12.0003 68.8372 12.3752L68.7505 12.202C69.6172 11.3348 71.1779 10.2658 72.3625 10.2658C73.1714 10.2658 73.6628 11.046 73.6628 12.404L73.6629 12.4037ZM76.755 11.7971C76.0223 11.8823 75.3349 12.1957 74.79 12.6929L74.6457 12.5485C75.4545 11.5374 77.5934 10.2656 78.2289 10.2656C78.8355 10.2656 79.2979 10.6701 79.2979 11.5371C79.1964 12.3852 78.8557 13.187 78.3156 13.8488C77.019 15.5346 75.514 17.0493 73.8365 18.3568L73.7498 18.1545C75.9459 16.1895 77.4198 14.138 77.4198 12.7801C77.4198 12.2022 77.1306 11.7975 76.755 11.7975V11.7971Z" fill="black"/>
<path d="M84.442 10.467C81.4942 11.3917 80.1364 17.2867 80.1364 19.9165C80.1364 20.8119 80.5696 21.1298 80.9744 21.1298C82.3614 21.1298 83.7485 19.6272 84.2975 18.6158L84.4997 18.7025C84.0666 19.974 82.3038 22.8636 80.1364 22.8636C78.287 22.8636 77.6802 21.7079 77.6802 20.2053C77.6802 15.8996 81.2631 10.553 84.4996 10.2646L84.442 10.4669V10.467ZM81.2055 16.1885C82.2428 15.9247 83.2032 15.4198 84.0085 14.7147C84.4409 14.2459 84.7739 13.6945 84.9875 13.0936C85.2011 12.4927 85.2907 11.8547 85.2511 11.2182C85.2707 11.077 85.2483 10.9332 85.1866 10.8048C85.1249 10.6763 85.0267 10.5688 84.9043 10.4959L84.962 10.2937C86.2626 10.4092 86.8404 11.0739 86.8404 11.9408C86.8404 14.2819 84.4993 15.8996 81.1478 16.391L81.2055 16.1888V16.1885Z" fill="black"/>
<path d="M86.3497 17.6623L90.4242 5.95912C90.6647 5.31387 90.839 4.64586 90.9445 3.96537C90.9559 3.87438 90.9364 3.78219 90.8892 3.70357C90.842 3.62495 90.7698 3.56445 90.6841 3.53176L89.7018 3.15593L89.7307 3.04067L93.9498 2L93.9786 2.02917L87.7945 20.4364L87.8813 20.4941C88.9999 20.078 90.0224 19.4391 90.8866 18.6159L91.0599 18.7315C90.3953 20.0028 87.2457 22.8637 85.8295 22.8637C85.7195 22.8733 85.6088 22.8592 85.5047 22.8223C85.4007 22.7855 85.3057 22.7267 85.2263 22.6501C85.1469 22.5734 85.0848 22.4806 85.0443 22.3779C85.0038 22.2753 84.9858 22.1651 84.9915 22.0548C84.9915 21.5059 85.454 20.2632 86.3497 17.6625V17.6623Z" fill="black"/>
<path d="M98.2265 10.467C95.2787 11.3917 93.9208 17.2867 93.9208 19.9165C93.9208 20.8119 94.354 21.1298 94.7588 21.1298C96.1458 21.1298 97.5328 19.6272 98.082 18.6158L98.2842 18.7025C97.8509 19.974 96.0883 22.8636 93.9208 22.8636C92.0713 22.8636 91.4646 21.7079 91.4646 20.2053C91.4646 15.8996 95.0475 10.553 98.2841 10.2646L98.2265 10.4669V10.467ZM94.9899 16.1885C96.0272 15.9247 96.9876 15.4197 97.7929 14.7147C98.2253 14.2459 98.5584 13.6945 98.7719 13.0936C98.9855 12.4927 99.0752 11.8547 99.0356 11.2182C99.0552 11.077 99.0327 10.9332 98.9711 10.8048C98.9094 10.6763 98.8112 10.5688 98.6888 10.4959L98.7464 10.2937C100.047 10.4092 100.625 11.0739 100.625 11.9408C100.625 14.2819 98.2838 15.8996 94.9322 16.391L94.9899 16.1888V16.1885Z" fill="black"/>
<path d="M103.775 12.4037C103.782 12.3565 103.778 12.3085 103.763 12.2633C103.748 12.2181 103.722 12.1771 103.689 12.1434C103.655 12.1098 103.614 12.0845 103.569 12.0695C103.524 12.0545 103.475 12.0503 103.428 12.0572C103.236 12.0778 103.05 12.137 102.881 12.2313C102.712 12.3256 102.564 12.4531 102.446 12.606C101.883 13.2276 101.468 13.9686 101.232 14.7734L101.03 14.6866C101.55 12.346 103.111 10.2655 104.7 10.2655C104.882 10.2405 105.067 10.256 105.242 10.3109C105.417 10.3657 105.578 10.4585 105.713 10.5827C105.849 10.7069 105.955 10.8594 106.024 11.0293C106.094 11.1992 106.125 11.3824 106.116 11.5658C105.963 12.9257 105.623 14.258 105.104 15.5247C104.18 18.2119 103.371 20.4658 102.85 21.6795C102.748 22.0106 102.546 22.302 102.272 22.514C101.998 22.726 101.665 22.8483 101.319 22.8642C100.481 22.8642 100.221 22.3152 100.394 21.8531C100.799 20.7551 102.532 16.305 102.995 15.0914C103.404 14.2457 103.668 13.3371 103.775 12.4037L103.775 12.4037ZM108.226 13.9066C108.502 13.5028 108.671 13.0354 108.717 12.5483C108.717 12.3461 108.659 12.1439 108.399 12.1439C107.792 12.1439 106.925 13.6177 106.087 15.5538L105.885 15.496C106.896 12.6642 107.907 10.3233 109.584 10.3233C109.716 10.3306 109.847 10.3641 109.967 10.4218C110.087 10.4796 110.194 10.5604 110.283 10.6598C110.371 10.7592 110.439 10.8751 110.483 11.0009C110.527 11.1266 110.545 11.2598 110.537 11.3927C110.537 12.5486 109.352 13.7621 108.457 14.1669L108.225 13.9069L108.226 13.9066Z" fill="black"/>
<path d="M8.16541 29.3287L6.89616 27.5519H6.37084V29.2884H5.97278V25.3076H6.98233C7.77271 25.3076 8.2631 25.7173 8.2631 26.4038C8.26759 26.6681 8.17585 26.925 8.00497 27.1267C7.83409 27.3284 7.59572 27.4611 7.33428 27.5L8.58043 29.2422L8.16541 29.3287ZM6.95986 25.6596H6.37084V27.2115H6.89001C7.48431 27.2115 7.85928 26.9288 7.85928 26.4268C7.85959 25.9481 7.55377 25.6596 6.95962 25.6596H6.95986Z" fill="black"/>
<path d="M9.82153 29.2884V25.3076H11.8982V25.6712H10.2196V27.0269H11.5465L11.6042 27.3847H10.2198V28.9247H11.9562V29.2881L9.82153 29.2884Z" fill="black"/>
<path d="M14.2007 29.3344C13.834 29.3371 13.472 29.2521 13.1449 29.0864L13.2026 28.6826C13.5067 28.8748 13.8583 28.9787 14.218 28.9826C14.3199 28.995 14.4232 28.9859 14.5213 28.9558C14.6194 28.9256 14.71 28.8751 14.7873 28.8076C14.8646 28.7401 14.9268 28.6571 14.9698 28.564C15.0129 28.4708 15.0359 28.3697 15.0372 28.267C15.0372 27.8748 14.8411 27.6786 14.2353 27.4132C13.4737 27.0788 13.1969 26.8247 13.1969 26.2652C13.2005 26.1224 13.2336 25.982 13.2941 25.8526C13.3547 25.7233 13.4413 25.6078 13.5486 25.5136C13.6558 25.4193 13.7814 25.3482 13.9175 25.3048C14.0536 25.2614 14.1971 25.2466 14.3392 25.2614C14.6446 25.2523 14.9471 25.324 15.216 25.4691L15.1583 25.8671C14.9114 25.7002 14.6198 25.6118 14.3218 25.6132C14.2319 25.6017 14.1405 25.6094 14.0537 25.6356C13.9669 25.6618 13.8865 25.7061 13.818 25.7654C13.7494 25.8248 13.6941 25.8979 13.6556 25.98C13.6172 26.0622 13.5965 26.1515 13.5949 26.2422C13.5949 26.6 13.7853 26.7729 14.3968 27.044C15.1357 27.3671 15.4353 27.6556 15.4353 28.2383C15.4334 28.3938 15.3991 28.5471 15.3345 28.6884C15.2699 28.8298 15.1765 28.9561 15.0603 29.0593C14.9441 29.1625 14.8076 29.2403 14.6595 29.2876C14.5115 29.335 14.3552 29.3509 14.2007 29.3344Z" fill="black"/>
<path d="M17.7492 27.6097H17.253V29.2884H16.855V25.3076H17.8354C18.6488 25.3076 19.145 25.7115 19.145 26.4268C19.1453 27.2115 18.5626 27.6097 17.7492 27.6097ZM17.8127 25.6596H17.2527V27.2577H17.766C18.3718 27.2577 18.741 26.9923 18.741 26.4385C18.7415 25.925 18.4188 25.6596 17.8127 25.6596Z" fill="black"/>
<path d="M22.1054 29.3642C21.6078 29.2926 21.1528 29.0437 20.8241 28.6632C20.4955 28.2828 20.3153 27.7965 20.3167 27.2938C20.3181 26.7911 20.501 26.3058 20.8318 25.9272C21.1625 25.5486 21.6189 25.3022 22.1169 25.2334C22.6156 25.3037 23.0719 25.552 23.4017 25.9326C23.7315 26.3132 23.9124 26.8002 23.911 27.3038C23.9096 27.8074 23.726 28.2934 23.3941 28.6722C23.0622 29.0509 22.6044 29.2967 22.1054 29.3642ZM22.1112 25.5912C21.2747 25.5912 20.7267 26.2834 20.7267 27.293C20.7267 28.3143 21.2805 29.0064 22.1171 29.0064C22.9536 29.0064 23.5015 28.3142 23.5015 27.3045C23.5013 26.2832 22.9475 25.5909 22.1109 25.5909L22.1112 25.5912Z" fill="black"/>
<path d="M28.0708 29.2884L25.7458 25.9361V29.2884H25.3708V25.3076H25.7458L28.0014 28.5557V25.3076H28.3764V29.2884H28.0708Z" fill="black"/>
<path d="M30.8923 29.3345C30.5257 29.3372 30.1638 29.2521 29.8367 29.0865L29.8943 28.6827C30.1984 28.8749 30.55 28.9787 30.9098 28.9826C31.0116 28.995 31.115 28.9859 31.2131 28.9558C31.3111 28.9256 31.4018 28.8751 31.4791 28.8076C31.5564 28.7401 31.6186 28.6571 31.6616 28.564C31.7047 28.4708 31.7276 28.3696 31.729 28.267C31.729 27.8748 31.5328 27.6786 30.9271 27.4132C30.1656 27.0788 29.8886 26.8247 29.8886 26.2652C29.8923 26.1224 29.9254 25.982 29.9859 25.8526C30.0464 25.7233 30.1331 25.6078 30.2403 25.5136C30.3476 25.4193 30.4732 25.3482 30.6093 25.3048C30.7453 25.2614 30.8889 25.2466 31.0309 25.2614C31.3364 25.2523 31.6389 25.324 31.9078 25.4691L31.8502 25.8671C31.6032 25.7002 31.3117 25.6118 31.0137 25.6132C30.9237 25.6017 30.8323 25.6094 30.7455 25.6356C30.6587 25.6618 30.5784 25.706 30.5098 25.7654C30.4412 25.8247 30.3859 25.8979 30.3474 25.98C30.309 26.0622 30.2883 26.1515 30.2867 26.2422C30.2867 26.6 30.4771 26.7729 31.0887 27.044C31.8271 27.3671 32.1271 27.6556 32.1271 28.2383C32.1252 28.3938 32.0909 28.5471 32.0263 28.6885C31.9617 28.8299 31.8683 28.9562 31.7521 29.0594C31.6358 29.1626 31.4993 29.2404 31.3513 29.2878C31.2032 29.3351 31.0469 29.351 30.8923 29.3345Z" fill="black"/>
<path d="M33.5869 29.2884V25.3076H33.9851V29.2884H33.5869Z" fill="black"/>
<path d="M36.5871 29.2884H35.6698V25.3076H36.5929C37.412 25.3076 37.8218 25.7058 37.8218 26.3C37.825 26.4904 37.7682 26.677 37.6595 26.8333C37.5508 26.9896 37.3956 27.1078 37.216 27.1711C37.4413 27.2117 37.6445 27.3319 37.7885 27.5098C37.9325 27.6877 38.0078 27.9115 38.0006 28.1403C38.0006 28.902 37.441 29.2884 36.5871 29.2884ZM36.5814 25.6537H36.0621V27.0382H36.5698C37.1352 27.0382 37.4294 26.7324 37.4294 26.3171C37.4294 25.9018 37.1525 25.6537 36.5814 25.6537ZM36.5986 27.3671H36.062V28.9422H36.6216C37.2273 28.9422 37.6081 28.6594 37.6081 28.1633C37.6083 27.6215 37.2218 27.3673 36.5986 27.3673V27.3671Z" fill="black"/>
<path d="M39.4031 29.2884V25.3076H39.8011V28.9191H41.3357L41.3934 29.2884H39.4031Z" fill="black"/>
<path d="M42.6685 29.2884V25.3076H44.7451V25.6712H43.0664V27.0269H44.3934L44.451 27.3847H43.0664V28.9247H44.803V29.2881L42.6685 29.2884Z" fill="black"/>
<path d="M49.6445 29.2884V25.3076H50.0426V28.9191H51.5772L51.6349 29.2884H49.6445Z" fill="black"/>
<path d="M54.2034 29.3519C53.9995 29.3632 53.7956 29.3302 53.6057 29.2554C53.4157 29.1805 53.2442 29.0654 53.1028 28.9181C52.9614 28.7707 52.8536 28.5946 52.7867 28.4016C52.7197 28.2087 52.6953 28.0036 52.715 27.8004V25.3076H53.1131V27.748C53.1131 28.4869 53.4765 28.9941 54.2092 28.9941C54.9247 28.9941 55.3111 28.5268 55.3111 27.7711V25.3076H55.7092V27.7711C55.7305 27.9776 55.7067 28.1861 55.6397 28.3825C55.5726 28.5788 55.4637 28.7583 55.3206 28.9085C55.1775 29.0588 55.0035 29.1762 54.8106 29.2528C54.6178 29.3293 54.4106 29.3631 54.2034 29.3519Z" fill="black"/>
<path d="M59.7419 29.3228L58.5246 27.4939L57.3479 29.2882H56.9094L58.3056 27.2169L57.0479 25.3592L57.4461 25.2783L58.5308 26.9226L59.5864 25.3074H60.0248L58.7557 27.1997L60.1402 29.2364L59.7419 29.3228Z" fill="black"/>
<path d="M62.8465 29.3519C62.6427 29.3632 62.4388 29.3302 62.2488 29.2553C62.0588 29.1804 61.8873 29.0654 61.746 28.918C61.6046 28.7707 61.4968 28.5945 61.4298 28.4016C61.3629 28.2087 61.3385 28.0036 61.3582 27.8004V25.3076H61.7565V27.748C61.7565 28.4869 62.12 28.9941 62.8527 28.9941C63.5682 28.9941 63.9546 28.5268 63.9546 27.7712V25.3076H64.3527V27.7712C64.374 27.9776 64.3502 28.1862 64.2831 28.3826C64.216 28.5789 64.1071 28.7584 63.964 28.9087C63.8208 29.0589 63.6468 29.1764 63.4539 29.2529C63.261 29.3294 63.0538 29.3632 62.8465 29.3519Z" fill="black"/>
<path d="M68.1196 29.3287L66.8503 27.5519H66.3253V29.2884H65.9272V25.3076H66.937C67.7273 25.3076 68.2176 25.7173 68.2176 26.4038C68.2221 26.6681 68.1303 26.925 67.9594 27.1267C67.7886 27.3284 67.5502 27.4611 67.2888 27.5L68.5349 29.2422L68.1196 29.3287ZM66.914 25.6596H66.3255V27.2115H66.8448C67.439 27.2115 67.814 26.9288 67.814 26.4268C67.8138 25.9481 67.508 25.6596 66.9138 25.6596H66.914Z" fill="black"/>
<path d="M71.0855 27.6387V29.2887H70.6873V27.6387L69.2795 25.3484L69.6891 25.2676L70.8947 27.2811L72.0659 25.3079H72.5159L71.0855 27.6387Z" fill="black"/>
<path d="M77.2887 29.2884V25.3076H77.6868V28.9191H79.2215L79.2791 29.2884H77.2887Z" fill="black"/>
<path d="M80.5942 29.2884V25.3076H80.9924V29.2884H80.5942Z" fill="black"/>
<path d="M83.0753 25.6712V27.0903H84.3562L84.4137 27.4481H83.0753V29.2884H82.6772V25.3076H84.6733V25.6712H83.0753Z" fill="black"/>
<path d="M86.0063 29.2884V25.3076H88.083V25.6712H86.4043V27.0269H87.7311L87.7889 27.3847H86.4045V28.9247H88.141V29.2881L86.0063 29.2884Z" fill="black"/>
<path d="M90.3854 29.3344C90.0188 29.3371 89.6569 29.2521 89.3298 29.0864L89.3874 28.6826C89.6915 28.8748 90.0431 28.9786 90.4029 28.9826C90.5047 28.995 90.608 28.9859 90.7061 28.9557C90.8042 28.9256 90.8948 28.8751 90.9721 28.8076C91.0494 28.7401 91.1116 28.6571 91.1546 28.5639C91.1977 28.4708 91.2207 28.3696 91.222 28.267C91.222 27.8748 91.0258 27.6786 90.42 27.4132C89.6585 27.0788 89.3816 26.8247 89.3816 26.2652C89.3853 26.1224 89.4184 25.982 89.4789 25.8526C89.5394 25.7233 89.6261 25.6078 89.7333 25.5136C89.8406 25.4193 89.9662 25.3482 90.1023 25.3048C90.2383 25.2614 90.3819 25.2466 90.524 25.2614C90.8295 25.2523 91.1319 25.324 91.4009 25.4691L91.3431 25.8671C91.0961 25.7002 90.8046 25.6118 90.5065 25.6132C90.4166 25.6018 90.3252 25.6094 90.2384 25.6357C90.1516 25.6619 90.0713 25.7061 90.0028 25.7655C89.9342 25.8248 89.8789 25.8979 89.8405 25.9801C89.8021 26.0622 89.7814 26.1515 89.7798 26.2422C89.7798 26.6 89.9701 26.7729 90.5816 27.044C91.32 27.3671 91.6202 27.6556 91.6202 28.2383C91.6183 28.3938 91.5839 28.5471 91.5194 28.6885C91.4548 28.8298 91.3614 28.9562 91.2451 29.0594C91.1289 29.1625 90.9924 29.2403 90.8443 29.2877C90.6963 29.335 90.54 29.3509 90.3854 29.3344Z" fill="black"/>
<path d="M94.303 25.6712V29.2884H93.9049V25.6712H92.6241V25.3076H95.555L95.6068 25.6712H94.303Z" fill="black"/>
<path d="M98.3533 27.6387V29.2887H97.9553V27.6387L96.5475 25.3484L96.9571 25.2676L98.1627 27.2811L99.3339 25.3079H99.7838L98.3533 27.6387Z" fill="black"/>
<path d="M101.082 29.2884V25.3076H101.481V28.9191H103.015L103.073 29.2884H101.082Z" fill="black"/>
<path d="M104.348 29.2884V25.3076H106.425V25.6712H104.746V27.0269H106.073L106.131 27.3847H104.746V28.9247H106.483V29.2881L104.348 29.2884Z" fill="black"/>
</g>
<defs>
<clipPath id="clip0_23_7877">
<rect width="110" height="32" fill="white" transform="translate(0.980957)"/>
</clipPath>
</defs>
</svg>
