<svg width="888" height="72" viewBox="0 0 888 72" fill="none" xmlns="http://www.w3.org/2000/svg">
<path d="M4 7H20" stroke="#252524" stroke-linecap="round"/>
<path d="M4 12H20" stroke="#252524" stroke-linecap="round"/>
<path d="M4 17H20" stroke="#252524" stroke-linecap="round"/>
<path d="M66.7175 18.7175L53.2825 5.2825" stroke="#252524" stroke-linecap="round"/>
<path d="M66.7175 5.2825L53.2825 18.7175" stroke="#252524" stroke-linecap="round"/>
<path d="M100 9L108 17L116 9" stroke="#252524" stroke-linecap="round"/>
<path d="M148 15L156 7L164 15" stroke="#252524" stroke-linecap="round"/>
<path d="M207 4L199 12L207 20" stroke="#252524" stroke-linecap="round"/>
<path d="M249 4L257 12L249 20" stroke="#252524" stroke-linecap="round"/>
<path d="M302.412 14.4121L308 20" stroke="#252524" stroke-linecap="round"/>
<path fill-rule="evenodd" clip-rule="evenodd" d="M298 16C301.314 16 304 13.3137 304 10C304 6.68629 301.314 4 298 4C294.686 4 292 6.68629 292 10C292 13.3137 294.686 16 298 16Z" stroke="#252524"/>
<path d="M348 12C352.418 12 356 15.5817 356 20H340C340 15.5817 343.582 12 348 12Z" stroke="#252524" stroke-linejoin="round"/>
<path fill-rule="evenodd" clip-rule="evenodd" d="M348 12C350.209 12 352 10.2091 352 8C352 5.79086 350.209 4 348 4C345.791 4 344 5.79086 344 8C344 10.2091 345.791 12 348 12Z" stroke="#252524"/>
<path d="M388 13L393 18L404 7" stroke="#252524" stroke-linecap="round"/>
<path d="M452 12H436" stroke="#252524" stroke-linecap="round"/>
<path d="M444 4V20" stroke="#252524" stroke-linecap="round"/>
<path d="M500 12H484" stroke="#252524" stroke-linecap="round"/>
<path d="M550 12C550 12 547 18 540 18C533 18 530 12 530 12C530 12 533 6 540 6C547 6 550 12 550 12Z" stroke="#252524" stroke-linecap="round"/>
<circle cx="540" cy="12" r="3" stroke="#252524" stroke-linecap="round"/>
<path d="M598 12C598 12 595 18 588 18C581 18 578 12 578 12C578 12 581 6 588 6C595 6 598 12 598 12Z" stroke="#252524" stroke-linecap="round"/>
<circle cx="588" cy="12" r="3" stroke="#252524" stroke-linecap="round"/>
<path d="M594.717 5.2825L581.282 18.7175" stroke="#252524" stroke-linecap="round"/>
<path d="M634.274 16.8763C638.802 16.8763 641.279 13.1245 641.279 9.87133C641.279 9.76474 641.277 9.65869 641.272 9.55306C641.752 9.20557 642.17 8.77183 642.5 8.2783C642.059 8.47429 641.584 8.60627 641.086 8.66578C641.594 8.36101 641.985 7.87868 642.169 7.30381C641.693 7.58593 641.166 7.79092 640.606 7.90147C640.156 7.42296 639.516 7.12366 638.808 7.12366C637.449 7.12366 636.346 8.2263 636.346 9.5854C636.346 9.77866 636.368 9.96646 636.41 10.1468C634.364 10.044 632.549 9.06417 631.335 7.5746C631.123 7.93832 631.002 8.36115 631.002 8.81195C631.002 9.66606 631.436 10.4201 632.097 10.8614C631.693 10.849 631.314 10.7379 630.982 10.5533C630.982 10.5636 630.982 10.5739 630.982 10.5847C630.982 11.7772 631.83 12.7727 632.957 12.9983C632.75 13.0547 632.533 13.085 632.308 13.085C632.149 13.085 631.995 13.0691 631.845 13.0406C632.158 14.0186 633.067 14.7305 634.145 14.7506C633.302 15.411 632.241 15.8045 631.087 15.8045C630.889 15.8045 630.693 15.7932 630.5 15.7704C631.59 16.4687 632.883 16.8763 634.274 16.8763Z" fill="#252524"/>
<path d="M682.688 10.25H681.375V12H682.688V17.25H684.875V12H686.45L686.625 10.25H684.875V9.50625C684.875 9.1125 684.963 8.9375 685.356 8.9375H686.625V6.75H684.962C683.387 6.75 682.688 7.45 682.688 8.7625V10.25Z" fill="#252524"/>
<path d="M729.583 8.25004C729.583 8.83337 729.125 9.29171 728.542 9.29171C727.958 9.29171 727.5 8.83337 727.5 8.25004C727.5 7.66671 727.958 7.20837 728.542 7.20837C729.125 7.20837 729.583 7.66671 729.583 8.25004ZM729.583 10.125H727.5V16.7917H729.583V10.125ZM732.917 10.125H730.833V16.7917H732.917V13.2917C732.917 11.3334 735.417 11.1667 735.417 13.2917V16.7917H737.5V12.5834C737.5 9.29171 733.792 9.41671 732.917 11.0417V10.125Z" fill="#252524"/>
<path fill-rule="evenodd" clip-rule="evenodd" d="M785 9.1627L780.43 12.5008C780.17 12.7008 779.83 12.7008 779.585 12.5117L775 9.16276C775.018 8.9788 775.055 8.87723 775.109 8.7751C775.188 8.62514 775.305 8.50744 775.454 8.42724C775.602 8.34703 775.749 8.30432 776.156 8.30432H783.844C784.251 8.30432 784.398 8.34703 784.546 8.42724C784.695 8.50744 784.812 8.62514 784.891 8.7751C784.945 8.87722 784.982 8.97878 785 9.1627Z" fill="#252524"/>
<path fill-rule="evenodd" clip-rule="evenodd" d="M785 9.82613V14.4726C785 14.8979 784.958 15.0521 784.879 15.2076C784.799 15.3631 784.683 15.4851 784.535 15.5683C784.387 15.6514 784.24 15.6957 783.835 15.6957H776.165C775.76 15.6957 775.613 15.6514 775.465 15.5683C775.317 15.4851 775.201 15.3631 775.121 15.2076C775.042 15.0521 775 14.8979 775 14.4726V9.82613L779.172 12.9934C779.661 13.3855 780.339 13.3855 780.828 12.9934L785 9.82613Z" fill="#252524"/>
<path fill-rule="evenodd" clip-rule="evenodd" d="M827.975 7.02539C829.599 7.02539 829.802 7.02539 830.462 7.07615C832.137 7.12691 832.898 7.9391 832.949 9.56346C833 10.2234 833 10.3756 833 12C833 13.6244 833 13.8274 832.949 14.4366C832.898 16.0609 832.086 16.8731 830.462 16.9239C829.802 16.9746 829.65 16.9746 827.975 16.9746C826.35 16.9746 826.147 16.9746 825.538 16.9239C823.863 16.8731 823.102 16.0609 823.051 14.4366C823 13.7767 823 13.6244 823 12C823 10.3756 823 10.1726 823.051 9.56346C823.102 7.9391 823.914 7.12691 825.538 7.07615C826.147 7.02539 826.35 7.02539 827.975 7.02539ZM824.827 12C824.827 10.2741 826.249 8.8528 827.975 8.8528C829.701 8.8528 831.122 10.2741 831.122 12C831.122 13.7259 829.701 15.1472 827.975 15.1472C826.249 15.1472 824.827 13.7259 824.827 12ZM830.513 8.75128C830.513 8.34519 830.817 8.04062 831.223 8.04062C831.629 8.04062 831.934 8.34519 831.934 8.75128C831.934 9.15737 831.629 9.46194 831.223 9.46194C830.817 9.46194 830.513 9.15737 830.513 8.75128Z" fill="#252524"/>
<path d="M827.975 14.0305C826.858 14.0305 825.944 13.1168 825.944 12C825.944 10.8833 826.858 9.96955 827.975 9.96955C829.091 9.96955 830.005 10.8833 830.005 12C830.005 13.1168 829.091 14.0305 827.975 14.0305Z" fill="#252524"/>
<path fill-rule="evenodd" clip-rule="evenodd" d="M878.057 9.68269C877.531 9.1804 876.828 8.90676 876.101 8.91801C874.77 8.91801 873.64 9.81576 873.237 11.0246V11.0247C873.023 11.6581 873.023 12.3441 873.237 12.9776H873.239C873.644 14.1846 874.772 15.0824 876.103 15.0824C876.79 15.0824 877.379 14.9067 877.836 14.5963V14.5951C878.374 14.239 878.742 13.6786 878.856 13.0451H876.101V11.0809H880.912C880.972 11.422 881 11.7706 881 12.1173C881 13.6688 880.446 14.9804 879.481 15.8688L879.482 15.8696C878.637 16.6492 877.476 17.1009 876.101 17.1009C874.172 17.1009 872.408 16.0139 871.543 14.2914V14.2914C870.819 12.8502 870.819 11.1521 871.543 9.71082H871.543L871.543 9.71081C872.408 7.98651 874.172 6.89945 876.101 6.89945C877.368 6.88446 878.592 7.36051 879.514 8.22641L878.057 9.68269Z" fill="#252524"/>
<path d="M4 55H20" stroke="#E86154" stroke-linecap="round"/>
<path d="M4 60H20" stroke="#E86154" stroke-linecap="round"/>
<path d="M4 65H20" stroke="#E86154" stroke-linecap="round"/>
<path d="M66.7175 66.7175L53.2825 53.2825" stroke="#E86154" stroke-linecap="round"/>
<path d="M66.7175 53.2825L53.2825 66.7175" stroke="#E86154" stroke-linecap="round"/>
<path d="M100 57L108 65L116 57" stroke="#E86154" stroke-linecap="round"/>
<path d="M148 63L156 55L164 63" stroke="#E86154" stroke-linecap="round"/>
<path d="M207 52L199 60L207 68" stroke="#E86154" stroke-linecap="round"/>
<path d="M249 52L257 60L249 68" stroke="#E86154" stroke-linecap="round"/>
<path d="M302.412 62.4121L308 68" stroke="#E86154" stroke-linecap="round"/>
<path fill-rule="evenodd" clip-rule="evenodd" d="M298 64C301.314 64 304 61.3137 304 58C304 54.6863 301.314 52 298 52C294.686 52 292 54.6863 292 58C292 61.3137 294.686 64 298 64Z" stroke="#E86154"/>
<path d="M348 60C352.418 60 356 63.5817 356 68H340C340 63.5817 343.582 60 348 60Z" stroke="#E86154" stroke-linejoin="round"/>
<path fill-rule="evenodd" clip-rule="evenodd" d="M348 60C350.209 60 352 58.2091 352 56C352 53.7909 350.209 52 348 52C345.791 52 344 53.7909 344 56C344 58.2091 345.791 60 348 60Z" stroke="#E86154"/>
<path d="M388 61L393 66L404 55" stroke="#E86154" stroke-linecap="round"/>
<path d="M452 60H436" stroke="#E86154" stroke-linecap="round"/>
<path d="M444 52V68" stroke="#E86154" stroke-linecap="round"/>
<path d="M500 60H484" stroke="#E86154" stroke-linecap="round"/>
<path d="M550 60C550 60 547 66 540 66C533 66 530 60 530 60C530 60 533 54 540 54C547 54 550 60 550 60Z" stroke="#E86154" stroke-linecap="round"/>
<circle cx="540" cy="60" r="3" stroke="#E86154" stroke-linecap="round"/>
<path d="M598 60C598 60 595 66 588 66C581 66 578 60 578 60C578 60 581 54 588 54C595 54 598 60 598 60Z" stroke="#E86154" stroke-linecap="round"/>
<circle cx="588" cy="60" r="3" stroke="#E86154" stroke-linecap="round"/>
<path d="M594.717 53.2825L581.282 66.7175" stroke="#E86154" stroke-linecap="round"/>
<path d="M634.274 64.8763C638.802 64.8763 641.279 61.1245 641.279 57.8713C641.279 57.7647 641.277 57.6587 641.272 57.5531C641.752 57.2056 642.17 56.7718 642.5 56.2783C642.059 56.4743 641.584 56.6063 641.086 56.6658C641.594 56.361 641.985 55.8787 642.169 55.3038C641.693 55.5859 641.166 55.7909 640.606 55.9015C640.156 55.423 639.516 55.1237 638.808 55.1237C637.449 55.1237 636.346 56.2263 636.346 57.5854C636.346 57.7787 636.368 57.9665 636.41 58.1468C634.364 58.044 632.549 57.0642 631.335 55.5746C631.123 55.9383 631.002 56.3611 631.002 56.812C631.002 57.6661 631.436 58.4201 632.097 58.8614C631.693 58.849 631.314 58.7379 630.982 58.5533C630.982 58.5636 630.982 58.5739 630.982 58.5847C630.982 59.7772 631.83 60.7727 632.957 60.9983C632.75 61.0547 632.533 61.085 632.308 61.085C632.149 61.085 631.995 61.0691 631.845 61.0406C632.158 62.0186 633.067 62.7305 634.145 62.7506C633.302 63.411 632.241 63.8045 631.087 63.8045C630.889 63.8045 630.693 63.7932 630.5 63.7704C631.59 64.4687 632.883 64.8763 634.274 64.8763Z" fill="#454545"/>
<path d="M682.688 58.25H681.375V60H682.688V65.25H684.875V60H686.45L686.625 58.25H684.875V57.5063C684.875 57.1125 684.963 56.9375 685.356 56.9375H686.625V54.75H684.962C683.387 54.75 682.688 55.45 682.688 56.7625V58.25Z" fill="#454545"/>
<path d="M729.583 56.25C729.583 56.8334 729.125 57.2917 728.542 57.2917C727.958 57.2917 727.5 56.8334 727.5 56.25C727.5 55.6667 727.958 55.2084 728.542 55.2084C729.125 55.2084 729.583 55.6667 729.583 56.25ZM729.583 58.125H727.5V64.7917H729.583V58.125ZM732.917 58.125H730.833V64.7917H732.917V61.2917C732.917 59.3334 735.417 59.1667 735.417 61.2917V64.7917H737.5V60.5834C737.5 57.2917 733.792 57.4167 732.917 59.0417V58.125Z" fill="#454545"/>
<path fill-rule="evenodd" clip-rule="evenodd" d="M785 57.1627L780.43 60.5008C780.17 60.7008 779.83 60.7008 779.585 60.5117L775 57.1628C775.018 56.9788 775.055 56.8772 775.109 56.7751C775.188 56.6251 775.305 56.5074 775.454 56.4272C775.602 56.347 775.749 56.3043 776.156 56.3043H783.844C784.251 56.3043 784.398 56.347 784.546 56.4272C784.695 56.5074 784.812 56.6251 784.891 56.7751C784.945 56.8772 784.982 56.9788 785 57.1627Z" fill="#454545"/>
<path fill-rule="evenodd" clip-rule="evenodd" d="M785 57.8261V62.4726C785 62.8979 784.958 63.0521 784.879 63.2076C784.799 63.3631 784.683 63.4851 784.535 63.5683C784.387 63.6514 784.24 63.6957 783.835 63.6957H776.165C775.76 63.6957 775.613 63.6514 775.465 63.5683C775.317 63.4851 775.201 63.3631 775.121 63.2076C775.042 63.0521 775 62.8979 775 62.4726V57.8261L779.172 60.9934C779.661 61.3855 780.339 61.3855 780.828 60.9934L785 57.8261Z" fill="#454545"/>
<path fill-rule="evenodd" clip-rule="evenodd" d="M827.975 55.0254C829.599 55.0254 829.802 55.0254 830.462 55.0762C832.137 55.1269 832.898 55.9391 832.949 57.5635C833 58.2234 833 58.3756 833 60C833 61.6244 833 61.8274 832.949 62.4366C832.898 64.0609 832.086 64.8731 830.462 64.9239C829.802 64.9746 829.65 64.9746 827.975 64.9746C826.35 64.9746 826.147 64.9746 825.538 64.9239C823.863 64.8731 823.102 64.0609 823.051 62.4366C823 61.7767 823 61.6244 823 60C823 58.3756 823 58.1726 823.051 57.5635C823.102 55.9391 823.914 55.1269 825.538 55.0762C826.147 55.0254 826.35 55.0254 827.975 55.0254ZM824.827 60C824.827 58.2741 826.249 56.8528 827.975 56.8528C829.701 56.8528 831.122 58.2741 831.122 60C831.122 61.7259 829.701 63.1472 827.975 63.1472C826.249 63.1472 824.827 61.7259 824.827 60ZM830.513 56.7513C830.513 56.3452 830.817 56.0406 831.223 56.0406C831.629 56.0406 831.934 56.3452 831.934 56.7513C831.934 57.1574 831.629 57.4619 831.223 57.4619C830.817 57.4619 830.513 57.1574 830.513 56.7513Z" fill="#454545"/>
<path d="M827.975 62.0305C826.858 62.0305 825.944 61.1168 825.944 60C825.944 58.8833 826.858 57.9696 827.975 57.9696C829.091 57.9696 830.005 58.8833 830.005 60C830.005 61.1168 829.091 62.0305 827.975 62.0305Z" fill="#454545"/>
<path fill-rule="evenodd" clip-rule="evenodd" d="M878.057 57.6827C877.531 57.1804 876.828 56.9068 876.101 56.918C874.77 56.918 873.64 57.8158 873.237 59.0246V59.0247C873.023 59.6581 873.023 60.3441 873.237 60.9776H873.239C873.644 62.1846 874.772 63.0824 876.103 63.0824C876.79 63.0824 877.379 62.9067 877.836 62.5963V62.5951C878.374 62.239 878.742 61.6786 878.856 61.0451H876.101V59.0809H880.912C880.972 59.422 881 59.7706 881 60.1173C881 61.6688 880.446 62.9804 879.481 63.8688L879.482 63.8696C878.637 64.6492 877.476 65.1009 876.101 65.1009C874.172 65.1009 872.408 64.0139 871.543 62.2914V62.2914C870.819 60.8502 870.819 59.1521 871.543 57.7108H871.543L871.543 57.7108C872.408 55.9865 874.172 54.8995 876.101 54.8995C877.368 54.8845 878.592 55.3605 879.514 56.2264L878.057 57.6827Z" fill="#454545"/>
</svg>
