<svg width="130" height="32" viewBox="0 0 130 32" fill="none" xmlns="http://www.w3.org/2000/svg">
<g clip-path="url(#clip0_65_7657)">
<path d="M49.6806 14.5558C48.0894 12.9402 46.4779 11.5408 46.4779 9.09696C46.4779 7.41198 47.404 6.65313 48.375 6.65313C49.75 6.65313 50.5822 7.69757 51.6512 10.7819L51.8184 10.733L51.6267 6.88568C50.8678 6.41241 50.0111 6.17578 49.1094 6.17578C46.8288 6.17578 44.8378 7.69349 44.8378 10.6147C44.8378 13.083 46.3351 14.9352 47.8528 16.4774C49.444 18.0931 51.0351 19.6108 51.0351 22.1525C51.0351 23.9558 50.2028 25.2859 48.8524 25.2859C47.5468 25.2859 46.2168 24.1476 45.0051 21.0142L44.8133 21.0836L45.0051 24.9758C46.074 25.4735 47.2368 25.7346 48.424 25.7346C50.9862 25.7346 52.8139 24.0007 52.8139 20.749C52.8384 17.8768 51.2717 16.098 49.6806 14.5558Z" fill="black"/>
<path d="M92.8333 14.5558C91.2421 12.9402 89.6306 11.5408 89.6306 9.09696C89.6306 7.41198 90.5567 6.65313 91.5277 6.65313C92.9026 6.65313 93.7349 7.69757 94.7794 10.7819L94.9467 10.733L94.7794 6.88568C94.0205 6.41241 93.1678 6.17578 92.2662 6.17578C89.9651 6.17578 87.9701 7.69349 87.9701 10.6147C87.9946 13.083 89.4674 14.9352 91.0096 16.5019C92.6007 18.1175 94.1919 19.6352 94.1919 22.177C94.1919 23.9803 93.3596 25.3103 92.0091 25.3103C90.7036 25.3103 89.3736 24.1721 88.1618 21.0387L87.9701 21.1081L88.1618 25.0003C89.2308 25.498 90.3935 25.7591 91.5808 25.7591C94.1429 25.7591 95.9707 24.0252 95.9707 20.7735C95.9666 17.8768 94.4244 16.098 92.8333 14.5558Z" fill="black"/>
<path d="M107.431 11.0879C107.431 8.85625 107.81 8.00356 108.427 6.60009V6.55521H105.46L102.396 19.8025L99.3366 6.55521H96.5337V6.62457C97.1253 7.99948 97.2926 8.83177 97.3171 11.0635V20.5818C97.3171 22.7645 97.1253 23.6457 96.4848 25.3063V25.3552H99.002V25.3063C98.1004 23.6457 97.8148 22.7441 97.8148 20.5818L97.7658 9.92517L101.23 24.784H101.609L105.052 9.99453V20.8674C105.052 22.9073 104.885 23.7885 104.412 25.3063V25.3307H108.092V25.2818C107.594 23.7641 107.427 22.8828 107.427 20.8429V11.0879H107.431Z" fill="black"/>
<path d="M113.796 6.41241H113.155L109.952 20.749C109.479 22.7686 109.051 24.119 108.316 25.3063V25.3552H110.927V25.3063C110.524 24.3801 110.05 22.5523 110.736 19.6312L110.842 19.1334H114.257L114.583 20.6511C115.081 22.74 114.962 24.4005 114.534 25.3022V25.3511H118.545V25.3022C117.953 24.3067 117.549 23.095 117.027 20.9326L113.796 6.41241ZM110.94 18.6602L112.539 11.1369L114.155 18.6602H110.94Z" fill="black"/>
<path d="M126.472 6.55521V6.62457C127.349 8.28507 127.565 9.18672 127.586 11.349L127.635 19.6556L121.201 6.55521H118.826V6.60417C119.299 7.57925 119.585 8.66858 119.609 9.76198V20.5859C119.609 22.7686 119.418 23.6498 118.777 25.3103V25.3593H121.221V25.3103C120.344 23.6498 120.128 22.7482 120.107 20.5859L120.038 9.64366L127.777 25.4286L128.087 25.3593V11.3286C128.087 9.14592 128.279 8.26467 128.92 6.60417V6.55521H126.472Z" fill="black"/>
<path d="M8.4944 19.2558H7.99666V20.5859C7.99666 22.7686 7.8049 23.6498 7.16437 25.3103V25.3593H9.6082V25.3103C8.73103 23.6498 8.5148 22.7482 8.5148 20.5859L8.4944 19.2558Z" fill="black"/>
<path d="M14.8549 6.60417C15.7321 8.26467 15.9483 9.16632 15.9483 11.3286L15.9973 19.6352L9.56332 6.55521H7.21332V6.60417C7.71107 7.57925 7.97218 8.66858 8.02114 9.76198V12.6587H8.474L8.44952 9.64366L16.189 25.4042H16.4991V11.3286C16.4991 9.14592 16.6908 8.26467 17.3314 6.60417V6.55521H14.8631V6.60417H14.8549Z" fill="black"/>
<path d="M0.734505 13.2747L0.685547 14.5069H0.754905C0.991536 13.9846 1.22817 13.4379 1.46888 13.4379H1.82383V17.3791C1.84831 17.8075 1.77487 18.2563 1.63207 18.6602H2.701V18.6357C2.5582 18.2318 2.48885 17.8034 2.50924 17.3791V13.4624H2.88867C3.1253 13.4624 3.36194 14.0091 3.60265 14.5313L3.67201 14.5069L3.62713 13.2747H0.734505Z" fill="black"/>
<path d="M6.05056 13.2951C6.19336 13.699 6.26272 14.1274 6.24232 14.5517V15.8083H4.8878V14.5517C4.86332 14.1234 4.93676 13.699 5.07956 13.2951V13.2747H4.03103V13.2992C4.17383 13.7031 4.24319 14.1315 4.22279 14.5558V17.3587C4.24727 17.8115 4.17383 18.2359 4.03103 18.6398L5.07548 18.6642V18.6398C4.93268 18.2114 4.86332 17.7871 4.88372 17.3587V15.9838H6.23824V17.3587C6.26272 17.8115 6.18928 18.2359 6.04648 18.6398V18.6642H7.09093V18.6398C6.94813 18.2114 6.87878 17.7871 6.89917 17.3587V14.5558C6.8747 14.1274 6.94813 13.7031 7.09093 13.2992V13.2747H6.04648V13.2951H6.05056Z" fill="black"/>
<path d="M9.1839 18.4235H8.42504V15.9063H8.77999C9.01662 15.9063 9.27773 16.3102 9.39605 16.5223H9.48989V15.1229H9.42053C9.27773 15.3595 9.0411 15.739 8.80447 15.739H8.44952V13.4379H9.1635C9.42461 13.4379 9.66124 14.0785 9.89787 14.4824L9.96723 14.4334L9.87339 13.2462H7.59275V13.2707C7.73555 13.6746 7.7845 14.0785 7.7845 14.4824V17.424C7.7845 17.8279 7.73555 18.2563 7.59275 18.6357L10.0611 18.5867L10.1549 17.2567L10.0611 17.2322C9.79996 17.734 9.51437 18.4235 9.1839 18.4235Z" fill="black"/>
<path d="M65.5349 6.41241H64.8944L61.6917 20.749C61.2184 22.7686 60.7901 24.119 60.0557 25.3063V25.3552H62.6913V25.3063C62.2874 24.3801 61.8141 22.5523 62.4995 19.6312L62.6056 19.1334H66L66.3223 20.6511C66.8201 22.74 66.7018 24.4005 66.2734 25.3022V25.3511H70.2839V25.3022C69.6923 24.3067 69.2884 23.095 68.7662 20.9326L65.5349 6.41241ZM62.7035 18.6602L64.3028 11.1369L65.898 18.6602H62.7035Z" fill="black"/>
<path d="M23.8061 24.8819H21.1012V15.8859H22.3374C23.1697 15.8859 24.1162 17.0731 24.4956 17.9992H24.6874V13.2503H24.4956C24.1407 14.0826 23.1656 15.3881 22.3374 15.3881H21.1012V7.05295H23.5695C24.3528 7.05295 25.4911 8.71346 26.3479 10.3291L26.4907 10.2597L26.1112 6.55521H18.1106V6.62457C18.5839 7.97908 18.8001 9.40295 18.7757 10.8268V21.0591C18.8001 22.5075 18.5839 23.9558 18.1106 25.3063V25.3552H26.8456L27.0578 21.0836L26.866 21.0142C25.944 22.9807 25.1117 24.8819 23.8061 24.8819Z" fill="black"/>
<path d="M39.6401 6.60417C40.2316 7.5303 40.5907 9.26424 39.995 12.2058L38.4773 20.3941L36.4374 11.2552C35.9396 9.16632 35.8213 7.55069 36.4618 6.60417V6.55521H32.5901V6.60417C33.1612 7.59965 33.5855 8.88481 34.0629 10.9737L34.1404 11.3123L32.1658 20.3737L30.2686 11.2593C29.8158 9.19488 29.7709 7.55477 30.4114 6.60825V6.55521H26.4458V6.62457C27.0618 7.62005 27.4658 8.90521 27.8697 10.9941L30.8112 25.5225H31.4273L34.3648 12.316L37.339 25.5021H37.9551L40.66 11.3531C41.1129 9.19488 41.4678 7.74653 42.1777 6.60417V6.55521H39.636V6.60417H39.6401Z" fill="black"/>
<path d="M68.5051 6.57969L68.3133 10.733L68.4806 10.7819C69.3129 9.1908 70.2145 7.05703 71.0917 7.05703H72.0178V20.8714C72.0178 22.9114 71.875 23.7926 71.3528 25.3103V25.3593H74.9839V25.3103C74.4617 23.7926 74.3189 22.9114 74.3189 20.8714V7.05295H75.245C76.1222 7.05295 77.0238 9.1908 77.8561 10.7779L78.0234 10.7289L77.8316 6.57561H68.5051V6.57969Z" fill="black"/>
<path d="M62.0222 10.733L61.8304 6.57969H52.4998L52.308 10.733L52.4753 10.7819C53.3076 9.1908 54.2092 7.05703 55.0864 7.05703H56.0125V20.8714C56.0125 22.9359 55.8697 23.7926 55.3475 25.3103V25.3593H58.9786V25.3103C58.4564 23.7926 58.3136 22.9114 58.3136 20.8714V7.05295H59.2397C60.1169 7.05295 61.0185 9.1908 61.8508 10.7779L62.0222 10.733Z" fill="black"/>
<path d="M84.2166 24.8819H81.5117V15.8859H82.7479C83.5802 15.8859 84.5512 17.0731 84.9061 17.9992H85.0979V13.2503H84.9061C84.5512 14.0826 83.5761 15.3881 82.7479 15.3881H81.5117V7.05295H83.9555C84.7388 7.05295 85.8771 8.71346 86.7339 10.3291L86.9012 10.2597L86.5217 6.55521H78.4967V6.62457C78.9699 7.97908 79.1861 9.40295 79.1617 10.8268V21.0591C79.1861 22.5075 78.9699 23.9558 78.4967 25.3063V25.3552H87.2806L87.4723 21.0836L87.2806 21.0142C86.3545 22.9807 85.5222 24.8819 84.2166 24.8819Z" fill="black"/>
</g>
<defs>
<clipPath id="clip0_65_7657">
<rect width="128.333" height="20" fill="white" transform="translate(0.685547 6)"/>
</clipPath>
</defs>
</svg>
