<svg width="44" height="36" viewBox="0 0 44 36" fill="none" xmlns="http://www.w3.org/2000/svg">
<path d="M0.383965 25.7543C3.11494 25.6381 3.42494 25.4471 3.42494 23.4831V4.31104C3.42494 2.35085 3.11494 2.15511 0.383965 2.04272V0.579834H12.31C15.4306 0.579834 17.9265 0.887958 19.8099 2.04272C21.697 3.19561 23.0831 5.31409 23.0831 8.39346C23.0831 11.2396 22.0426 13.3244 20.1199 14.7077C18.346 15.9786 15.5045 16.6304 11.8904 16.6304H9.58181V23.4841C9.58181 25.4471 9.88806 25.6391 13.2718 25.8348V27.2143H0.383965V25.7543ZM11.7331 14.8613C15.6188 14.8613 16.6153 11.4316 16.6153 8.50866C16.6153 4.08065 14.4294 2.35085 11.852 2.35085C9.889 2.35085 9.58181 2.69456 9.58181 3.77347V13.2054C9.58181 14.6655 10.2336 14.8613 11.7331 14.8613Z" fill="black"/>
<path d="M32.6546 0C35.6881 0 39.0391 0.385858 41.461 1.69422V8.70054H39.9972C38.9183 5.3889 37.1164 1.77101 32.8476 1.77101C26.1128 1.77101 25.1473 9.66238 25.1473 13.5893C25.1473 16.398 25.5359 26.0258 32.4982 26.0258C35.1505 26.0258 35.6891 25.638 35.6891 24.2894V18.864C35.6891 16.9759 35.3828 16.7839 32.384 16.5919V15.129H44V16.5919C42.155 16.7839 41.8431 16.9759 41.8431 18.7872V25.9452C39.1496 27.1403 35.4259 27.793 32.4992 27.793C29.9592 27.793 26.346 27.5645 23.5364 25.6774C20.6125 23.7153 18.3442 20.1714 18.3442 14.0913C18.3423 8.77734 20.3399 0 32.6546 0Z" fill="black"/>
<path d="M41.963 29.2839H0.196655V35.9999H41.963V29.2839Z" fill="#C91517"/>
</svg>
