<svg width="58" height="32" viewBox="0 0 58 32" fill="none" xmlns="http://www.w3.org/2000/svg">
<g clip-path="url(#clip0_23_7945)">
<path d="M7.23 10.4741H6.86157C6.20637 5.43891 4.97857 2.61433 3.38201 2.61433C2.27685 2.61433 1.53995 3.80153 1.53995 5.52073C1.53995 7.60852 2.19515 9.49157 4.89664 14.6085C5.89858 16.3043 6.68255 18.1198 7.23 20.012C7.61208 21.2739 7.81871 22.5824 7.84409 23.9007C7.84409 27.3804 6.41128 29.9186 4.4874 29.9186C3.54581 29.9186 2.93188 29.5091 2.07206 28.2808C1.581 27.544 1.49901 27.5031 1.25345 27.5031C0.76222 27.5031 0.598251 27.9124 0.516547 29.7137H0.148235V20.1755H0.516659C0.71321 22.1721 1.09697 24.1457 1.66287 26.0704C2.44071 28.4038 3.30031 29.5499 4.40552 29.5499C5.59272 29.5499 6.28852 28.2808 6.28852 26.1935C6.21559 24.455 5.8127 22.7463 5.10132 21.1584C4.39944 19.3527 3.59304 17.5895 2.68621 15.8776C0.762276 12.0705 0.1073 9.90088 0.1073 7.56752C0.1073 4.41562 1.41725 2.20508 3.34113 2.20508C4.15991 2.20508 4.85582 2.61438 5.59233 3.59685L5.91982 4.04725C6.08362 4.29276 6.20643 4.37469 6.37023 4.37469C6.69771 4.37469 6.77948 4.08808 6.8614 2.61438V2.40976H7.22983L7.23 10.4741Z" fill="black"/>
<path d="M11.651 2.40918C13.5749 2.40918 14.189 2.57287 15.0077 3.14597C16.4812 4.21036 17.3409 6.33892 17.3409 8.83608C17.3409 11.4149 16.4404 13.6664 15.0077 14.6079C14.2065 15.0881 13.2794 15.3164 12.3469 15.2631V29.3447H14.1071V29.713H8.45801V29.3447H9.89071V2.77755H8.45801V2.40918H11.651ZM12.3469 14.8945C14.3527 14.8126 14.8029 13.7892 14.8029 9.24527C14.8029 3.84183 14.3937 2.85948 12.3469 2.77755V14.8945Z" fill="black"/>
<path d="M26.2238 10.5144H25.8554C25.569 7.52607 25.1595 5.5202 24.5454 4.37411C23.8906 3.18691 23.3174 2.85948 21.4753 2.77755V14.6899C23.3585 14.6899 23.9724 13.5027 24.2181 9.20444H24.5865V21.1166H24.2181L24.1771 20.5434C23.8906 15.9997 23.4812 15.1401 21.4753 15.0583V29.3447C23.0719 29.2215 23.8906 28.6895 24.5045 27.3388C25.2004 25.8649 25.6099 23.5315 25.7736 20.1748H26.1829V29.7132H17.5865V29.3447H19.0194V2.77755H17.5865V2.40918H26.2238V10.5144Z" fill="black"/>
<path d="M35.7209 29.345H36.8263V29.7133H32.0775V29.345H33.1827L32.3232 21.7311H29.3761L28.9255 25.1699C28.8067 25.9423 28.7384 26.7216 28.7209 27.5029C28.7209 28.649 29.2122 29.1813 30.4401 29.3453V29.7136H26.3876V29.345C27.7793 29.0171 28.0659 28.4852 28.5572 25.1282L31.8318 2.08203H32.2414L35.7209 29.345ZM29.4579 21.3626H32.2823L31.0132 10.0235L29.4579 21.3626Z" fill="black"/>
<path d="M39.896 2.40918H40.3872C42.2704 2.40918 43.1711 2.77755 44.1124 3.92376C45.1769 5.19272 45.7089 6.87109 45.7089 9.08175C45.7089 12.5612 44.3989 14.5671 41.8202 15.0992C42.498 15.2132 43.1369 15.4935 43.6798 15.915C44.2227 16.3365 44.6527 16.886 44.9312 17.5143C45.2996 18.4149 45.4223 19.3565 45.4223 21.2805V28.526C45.4223 29.1809 45.5041 29.3858 45.7501 29.3858C46.0774 29.3858 46.2821 29.017 46.4457 28.2397C46.7173 26.6856 46.8406 25.1092 46.814 23.5318V22.8767H47.2237C47.2534 23.1623 47.2671 23.4493 47.2646 23.7364C47.2705 25.3012 47.1335 26.8633 46.8553 28.4032C46.6505 29.5085 46.2412 29.9999 45.5452 29.9999C43.9079 29.9999 42.9664 27.6665 42.9664 23.4499C42.9664 23.2046 42.9664 22.9179 43.0071 21.9355V20.9121C43.0484 20.2162 43.0484 19.3974 43.0484 18.8651C43.0484 16.2045 42.434 15.3039 40.6332 15.263V29.3447H41.9429V29.713H36.7441V29.3447H38.2177V2.77755H36.7441V2.40918H39.896ZM40.6332 14.8945C42.7618 14.8126 43.1711 13.8711 43.1711 8.99976C43.1711 3.96469 42.7206 2.85948 40.6332 2.77755V14.8945Z" fill="black"/>
<path d="M46.814 7.52619C47.633 6.09349 48.0013 5.3157 48.1241 4.45599C47.8877 4.62961 47.5986 4.71642 47.3056 4.70178C47.1361 4.69967 46.9689 4.66197 46.8148 4.59111C46.6608 4.52026 46.5234 4.41784 46.4114 4.29048C46.2995 4.16312 46.2156 4.01367 46.1651 3.85181C46.1146 3.68995 46.0987 3.51929 46.1184 3.35089C46.1021 3.1831 46.1205 3.01377 46.1722 2.85334C46.224 2.69292 46.3082 2.54483 46.4194 2.41821C46.5307 2.2916 46.6668 2.18916 46.8193 2.11722C46.9717 2.04529 47.1373 2.00539 47.3058 2C48.1243 2 48.6157 2.6552 48.6157 3.76019C48.6157 4.94739 48.2472 5.97068 47.1421 7.68994L46.814 7.52619Z" fill="black"/>
<path d="M56.5159 10.4741H56.1475C55.4923 5.43891 54.2644 2.61433 52.6677 2.61433C51.5626 2.61433 50.8258 3.80153 50.8258 5.52073C50.8258 7.60852 51.481 9.49157 54.1825 14.6085C55.1845 16.3043 55.9685 18.1198 56.5159 20.012C56.898 21.2739 57.1046 22.5824 57.1299 23.9007C57.1299 27.3804 55.6974 29.9186 53.7734 29.9186C52.8317 29.9186 52.2177 29.5091 51.3579 28.2808C50.867 27.544 50.7849 27.5031 50.5392 27.5031C50.0481 27.5031 49.8843 27.9124 49.8025 29.7137H49.4337V20.1755H49.8023C49.9989 22.1721 50.3827 24.1457 50.9486 26.0704C51.7263 28.4038 52.5858 29.5499 53.691 29.5499C54.8782 29.5499 55.5741 28.2808 55.5741 26.1935C55.5011 24.455 55.0982 22.7463 54.3869 21.1584C53.6849 19.3528 52.8785 17.5895 51.9718 15.8776C50.0476 12.0705 49.3927 9.90088 49.3927 7.56752C49.3927 4.41562 50.7026 2.20508 52.6266 2.20508C53.4453 2.20508 54.1412 2.61438 54.8778 3.59685L55.2053 4.04725C55.3689 4.29276 55.4919 4.37469 55.6555 4.37469C55.9832 4.37469 56.0651 4.08808 56.1469 2.61438V2.40976H56.5153L56.5159 10.4741Z" fill="black"/>
</g>
<defs>
<clipPath id="clip0_23_7945">
<rect width="57.12" height="32" fill="white" transform="translate(0.0585938)"/>
</clipPath>
</defs>
</svg>
