<svg width="117" height="32" viewBox="0 0 117 32" fill="none" xmlns="http://www.w3.org/2000/svg">
<g clip-path="url(#clip0_23_7859)">
<path d="M6.87037 21.8042V11.9053H10.3143V10.25H1.55542V11.9053H4.99938V21.8042H6.87037Z" fill="black"/>
<path d="M19.5465 21.8013V20.1459H14.0163V16.7691H19.0332V15.1137H14.0163V11.9024H19.5465V10.2471H12.1453V21.8013H19.5465Z" fill="black"/>
<path d="M25.9512 21.9778C27.9541 21.9778 29.3446 20.9681 30.1226 19.2962L28.6163 18.3858C28.2024 19.5114 27.3251 20.306 25.9512 20.306C24.18 20.306 23.0875 19.0148 23.0875 16.8794V15.1248C23.0875 12.9894 24.18 11.6983 25.9512 11.6983C27.292 11.6983 28.1031 12.41 28.5004 13.5026L30.073 12.6418C29.295 10.9202 27.9541 10.0264 25.9512 10.0264C22.9385 10.0264 21.1011 12.1286 21.1011 16.0021C21.1011 19.8756 22.9385 21.9778 25.9512 21.9778Z" fill="black"/>
<path d="M33.6422 21.8012V16.752H38.8907V21.8012H40.7676V10.208H38.8907V15.0911H33.6422V10.208H31.7654V21.8012H33.6422Z" fill="black"/>
<path d="M45.569 21.8003V11.479H45.6355L49.642 18.5759L53.6486 11.479H53.7151V21.8003H54.6793V10.1992H53.3659L49.6919 16.7311H49.642L45.968 10.1992H44.6047V21.8003H45.569Z" fill="black"/>
<path fill-rule="evenodd" clip-rule="evenodd" d="M66.8651 16C66.8651 19.9224 65.0697 22 62.1271 22C59.1679 22 57.3724 19.9224 57.3724 16C57.3724 12.0776 59.1679 10 62.1271 10C65.0697 10 66.8651 12.0776 66.8651 16ZM58.4365 16.7313C58.4365 19.4903 59.8994 21.1025 62.1271 21.1025C64.3382 21.1025 65.8012 19.4903 65.8012 16.7313V15.2687C65.8012 12.5097 64.3382 10.8975 62.1271 10.8975C59.8994 10.8975 58.4365 12.5097 58.4365 15.2687V16.7313Z" fill="black"/>
<path d="M70.5226 21.8003V11.5621H70.5724L76.6737 21.8003H77.9205V10.1992H76.9563V20.4374H76.9064L70.8052 10.1992H69.5583V21.8003H70.5226Z" fill="black"/>
<path d="M85.3397 21.8003V20.9693H83.6439V11.0302H85.3397V10.1992H80.9507V11.0302H82.6464V20.9693H80.9507V21.8003H85.3397Z" fill="black"/>
<path d="M91.8774 21.8003V11.0801H95.7676V10.1992H86.9897V11.0801H90.8799V21.8003H91.8774Z" fill="black"/>
<path fill-rule="evenodd" clip-rule="evenodd" d="M106.341 16C106.341 19.9224 104.546 22 101.603 22C98.6439 22 96.8484 19.9224 96.8484 16C96.8484 12.0776 98.6439 10 101.603 10C104.546 10 106.341 12.0776 106.341 16ZM97.9124 16.7313C97.9124 19.4903 99.3753 21.1025 101.603 21.1025C103.814 21.1025 105.277 19.4903 105.277 16.7313V15.2687C105.277 12.5097 103.814 10.8975 101.603 10.8975C99.3753 10.8975 97.9124 12.5097 97.9124 15.2687V16.7313Z" fill="black"/>
<path fill-rule="evenodd" clip-rule="evenodd" d="M110.032 16.6646V21.8003H109.034V10.1992H113.589C115.568 10.1992 116.698 11.3959 116.698 13.4236C116.698 15.202 115.8 16.382 114.138 16.5981L116.997 21.8003H115.884L113.107 16.6646H110.032ZM110.031 15.8169H113.589C114.919 15.8169 115.634 14.9859 115.634 13.8391V13.0413C115.634 11.9111 114.919 11.0801 113.589 11.0801H110.031V15.8169Z" fill="black"/>
</g>
<defs>
<clipPath id="clip0_23_7859">
<rect width="116" height="32" fill="white" transform="translate(0.980957)"/>
</clipPath>
</defs>
</svg>
