<svg width="117" height="32" viewBox="0 0 117 32" fill="none" xmlns="http://www.w3.org/2000/svg">
<g clip-path="url(#clip0_23_7967)">
<path d="M19.0208 7.44283C19.0286 7.36063 19.0185 7.27773 18.9913 7.19976C18.9642 7.1218 18.9205 7.0506 18.8634 6.99101C18.8063 6.93142 18.7369 6.88483 18.6602 6.85441C18.5834 6.824 18.501 6.81047 18.4186 6.81474H18.3758C18.3643 6.81474 18.3586 6.81757 18.3586 6.82616V8.78166C18.3586 8.78999 18.3643 8.79307 18.3758 8.79307H18.6269C18.6326 8.79307 18.6326 8.81591 18.6269 8.81591H17.7333C17.7277 8.81591 17.7277 8.79307 17.7333 8.79307H17.9846C17.9961 8.79307 18.0018 8.79024 18.0018 8.78166V6.82616C18.0018 6.81782 17.9961 6.81474 17.9846 6.81474H17.9418C17.8599 6.81073 17.7781 6.82453 17.7021 6.8552C17.6261 6.88588 17.5576 6.93269 17.5014 6.9924C17.4452 7.05212 17.4026 7.12332 17.3767 7.20108C17.3507 7.27885 17.3419 7.36133 17.3508 7.44283C17.3508 7.44849 17.328 7.44849 17.328 7.44283V6.80032C17.3282 6.79818 17.3292 6.79618 17.3307 6.79466C17.3322 6.79314 17.3342 6.7922 17.3363 6.79199H19.0353C19.041 6.79199 19.041 6.79766 19.041 6.80032V7.44257C19.0409 7.44849 19.0208 7.44849 19.0208 7.44283Z" fill="black"/>
<path d="M21.5019 8.81583C21.4962 8.81583 21.4962 8.79299 21.5019 8.79299H21.7269C21.7383 8.79299 21.744 8.79016 21.744 8.78158V7.77391H20.9789V8.78158C20.9789 8.78991 20.9846 8.79299 20.996 8.79299H21.2216C21.2273 8.79299 21.2273 8.81583 21.2216 8.81583H20.3566C20.3509 8.81583 20.3509 8.79299 20.3566 8.79299H20.6049C20.6192 8.79299 20.6249 8.79016 20.6249 8.78158V6.82607C20.6249 6.81774 20.6192 6.81466 20.6049 6.81466H20.3566C20.3509 6.81466 20.3509 6.79199 20.3566 6.79199H21.2216C21.2273 6.79199 21.2273 6.81466 21.2216 6.81466H20.996C20.9846 6.81466 20.9789 6.81749 20.9789 6.82607V7.75108H21.744V6.82607C21.744 6.81774 21.7383 6.81466 21.7269 6.81466H21.5019C21.4962 6.81466 21.4962 6.79199 21.5019 6.79199H22.3669C22.3726 6.79199 22.3726 6.81466 22.3669 6.81466H22.1155C22.1041 6.81466 22.0984 6.81749 22.0984 6.82607V8.78158C22.0984 8.78991 22.1041 8.79299 22.1155 8.79299H22.3669C22.3726 8.79299 22.3726 8.81583 22.3669 8.81583H21.5019Z" fill="black"/>
<path d="M25.3724 8.81583H23.7339C23.7282 8.81583 23.7282 8.79299 23.7339 8.79299H23.9853C23.9997 8.79299 24.0053 8.79016 24.0053 8.78158V6.82607C24.0053 6.81774 23.9997 6.81466 23.9853 6.81466H23.7342C23.7284 6.81466 23.7284 6.79199 23.7342 6.79199H25.2211C25.2294 6.79199 25.2294 6.79766 25.2294 6.80033V7.35691C25.2294 7.36524 25.2066 7.36524 25.2066 7.35691C25.212 7.28649 25.2025 7.21572 25.1788 7.14919C25.1551 7.08266 25.1177 7.02185 25.069 6.97071C25.0203 6.91957 24.9614 6.87923 24.8961 6.85232C24.8308 6.82541 24.7605 6.81252 24.6899 6.81449H24.3759C24.3644 6.81449 24.3587 6.81733 24.3587 6.82591V7.76516H24.4615C24.5098 7.7681 24.5582 7.76099 24.6036 7.74429C24.649 7.72759 24.6904 7.70167 24.7253 7.66814C24.7602 7.63462 24.7877 7.59423 24.8062 7.54953C24.8247 7.50482 24.8337 7.45677 24.8327 7.40841C24.8327 7.40266 24.8555 7.40266 24.8555 7.40841V8.14491C24.8555 8.15049 24.8327 8.15049 24.8327 8.14491C24.8334 8.09661 24.8243 8.04866 24.8057 8.00407C24.7871 7.95947 24.7596 7.91917 24.7248 7.88569C24.6899 7.8522 24.6486 7.82625 24.6033 7.80944C24.558 7.79263 24.5097 7.78533 24.4615 7.78799H24.3587V8.78141C24.3587 8.78974 24.3644 8.79283 24.3759 8.79283H24.6984C24.7823 8.80273 24.8674 8.79452 24.9478 8.76873C25.0283 8.74295 25.1023 8.7002 25.1648 8.64337C25.2273 8.58654 25.2769 8.51695 25.3102 8.43931C25.3435 8.36167 25.3597 8.27779 25.3578 8.19333C25.3578 8.18766 25.3807 8.18766 25.3807 8.19333V8.80708C25.3809 8.80823 25.3808 8.80941 25.3805 8.81053C25.3801 8.81165 25.3796 8.81267 25.3788 8.81352C25.3779 8.81437 25.377 8.81502 25.3759 8.81542C25.3748 8.81582 25.3736 8.81596 25.3724 8.81583Z" fill="black"/>
<path d="M31.0186 6.81474C31.0014 6.81474 30.9844 6.82616 30.9501 6.93466L30.2936 8.85866C30.2906 8.86432 30.2706 8.86432 30.2678 8.85866L29.7226 7.36849L29.2143 8.85866C29.2114 8.87007 29.1943 8.86699 29.1885 8.85866L28.3921 6.82607C28.3896 6.82236 28.3862 6.81935 28.3822 6.81735C28.3783 6.81535 28.3738 6.81442 28.3694 6.81466H28.1103C28.1045 6.81466 28.1045 6.79199 28.1103 6.79199H29.0436C29.0493 6.79199 29.0493 6.81466 29.0436 6.81466H28.7869C28.7724 6.81466 28.7697 6.81749 28.7724 6.82607L29.369 8.35624L29.7117 7.33716L29.5233 6.82607C29.5233 6.82041 29.5033 6.81466 29.5033 6.81466H29.2749C29.2692 6.81466 29.2692 6.79199 29.2749 6.79199H30.2053C30.2109 6.79199 30.2109 6.81466 30.2053 6.81466H29.9053C29.8939 6.81466 29.8909 6.82041 29.8939 6.82607L30.4419 8.36483L30.9299 6.92041C30.9644 6.82607 30.9644 6.81466 30.9444 6.81466H30.6789C30.6732 6.81466 30.6732 6.79199 30.6789 6.79199H31.2554C31.2611 6.79199 31.2611 6.81466 31.2554 6.81466L31.0186 6.81474Z" fill="black"/>
<path d="M33.3311 8.86389C33.1155 8.89148 32.8967 8.85273 32.7037 8.75281C32.5107 8.65288 32.3528 8.49653 32.2509 8.30457C32.1491 8.11262 32.1081 7.89418 32.1336 7.67837C32.159 7.46256 32.2496 7.25962 32.3933 7.09659C32.5369 6.93356 32.7269 6.81819 32.9378 6.76585C33.1487 6.71351 33.3706 6.72668 33.5738 6.80361C33.777 6.88055 33.952 7.01758 34.0754 7.19647C34.1987 7.37535 34.2647 7.58758 34.2644 7.80489C34.2798 8.06878 34.1904 8.32808 34.0156 8.52639C33.8408 8.72471 33.5948 8.846 33.3311 8.86389ZM33.6708 6.87431C33.576 6.79536 33.4541 6.7565 33.3311 6.76597C33.2098 6.75693 33.0898 6.79583 32.997 6.87431C32.8141 7.14783 32.7379 7.47895 32.783 7.80489C32.783 8.3758 32.8543 8.59555 32.997 8.73272C33.0895 8.81202 33.2094 8.85193 33.3311 8.84389C33.4544 8.85237 33.5763 8.8125 33.6708 8.73272C33.8134 8.59555 33.882 8.3758 33.882 7.80489C33.9275 7.47932 33.8524 7.14834 33.6708 6.87431Z" fill="black"/>
<path d="M37.4131 8.86432C37.1762 8.86432 36.9535 8.71874 36.9535 8.31058V8.12524C36.9535 7.87407 36.7765 7.77416 36.5167 7.77416H36.2884V8.78183C36.2884 8.79016 36.294 8.79324 36.305 8.79324H36.5906V8.81608H35.6656C35.66 8.81608 35.66 8.79324 35.6656 8.79324H35.9169C35.9284 8.79324 35.9341 8.79041 35.9341 8.78183V6.82607C35.9341 6.81774 35.9284 6.81466 35.9169 6.81466H35.666C35.6604 6.81466 35.6604 6.79199 35.666 6.79199H36.5481C36.9731 6.79199 37.2304 7.00866 37.2304 7.28866C37.2228 7.35912 37.2012 7.42736 37.167 7.48943C37.1328 7.5515 37.0866 7.60616 37.0311 7.65024C36.9756 7.69432 36.9119 7.72694 36.8437 7.74621C36.7755 7.76548 36.7042 7.77101 36.6338 7.76249C37.1162 7.76249 37.319 8.00516 37.319 8.31633V8.57316C37.319 8.71874 37.3846 8.82441 37.4931 8.82441C37.526 8.82459 37.5584 8.8178 37.5884 8.8045C37.6185 8.7912 37.6453 8.77168 37.6672 8.74724C37.67 8.74458 37.6839 8.76166 37.6786 8.76441C37.6436 8.79846 37.602 8.82491 37.5563 8.8421C37.5106 8.8593 37.4619 8.86686 37.4131 8.86432ZM36.4739 6.81433H36.3055C36.294 6.81433 36.2888 6.81716 36.2888 6.82574V7.75074H36.5171C36.797 7.75074 36.877 7.66224 36.877 7.29974C36.8769 6.94324 36.7423 6.81466 36.4739 6.81466V6.81433Z" fill="black"/>
<path d="M40.3391 8.81583H38.7776C38.7719 8.81583 38.7719 8.79299 38.7776 8.79299H39.0289C39.0403 8.79299 39.046 8.79016 39.046 8.78158V6.82607C39.046 6.81774 39.0403 6.81466 39.0289 6.81466H38.7776C38.7719 6.81466 38.7719 6.79199 38.7776 6.79199H39.671C39.6769 6.79199 39.6769 6.81466 39.671 6.81466H39.417C39.4086 6.81466 39.4028 6.81749 39.4028 6.82607V8.78158C39.4028 8.78991 39.4085 8.79299 39.417 8.79299H39.7253C39.8072 8.79598 39.8887 8.78167 39.9647 8.75101C40.0406 8.72035 40.1093 8.67402 40.1661 8.61505C40.2229 8.55607 40.2667 8.48578 40.2946 8.40875C40.3224 8.33172 40.3337 8.24968 40.3277 8.16799C40.3277 8.16224 40.3476 8.16224 40.3476 8.16799V8.80741C40.3478 8.80855 40.3476 8.80971 40.3472 8.81079C40.3468 8.81187 40.3462 8.81285 40.3454 8.81366C40.3446 8.81446 40.3436 8.81508 40.3425 8.81545C40.3414 8.81583 40.3403 8.81596 40.3391 8.81583Z" fill="black"/>
<path d="M42.5769 8.81583H41.6603C41.6546 8.81583 41.6546 8.79299 41.6603 8.79299H41.9086C41.9228 8.79299 41.9286 8.79016 41.9286 8.78158V6.82607C41.9286 6.81774 41.9228 6.81466 41.9086 6.81466H41.6603C41.6546 6.81466 41.6546 6.79199 41.6603 6.79199H42.5769C42.8306 6.81336 43.067 6.92923 43.2393 7.11664C43.4116 7.30405 43.5072 7.54934 43.5072 7.80391C43.5072 8.05848 43.4116 8.30377 43.2393 8.49118C43.067 8.67859 42.8306 8.79446 42.5769 8.81583ZM42.9108 6.92041C42.8169 6.84431 42.6976 6.80654 42.5769 6.81466H42.3003C42.2888 6.81466 42.2836 6.81749 42.2836 6.82607V8.78158C42.2836 8.78991 42.2893 8.79299 42.3003 8.79299H42.5769C42.6971 8.80078 42.8159 8.76422 42.9108 8.69024C43.0564 8.55608 43.125 8.35058 43.125 7.80533C43.1253 7.32849 43.0567 7.05166 42.9111 6.92041H42.9108Z" fill="black"/>
<path d="M47.507 8.86389C47.2914 8.89148 47.0726 8.85273 46.8796 8.75281C46.6866 8.65288 46.5287 8.49653 46.4268 8.30457C46.325 8.11262 46.284 7.89418 46.3095 7.67837C46.3349 7.46256 46.4255 7.25962 46.5692 7.09659C46.7128 6.93356 46.9028 6.81819 47.1137 6.76585C47.3246 6.71351 47.5465 6.72668 47.7497 6.80361C47.9529 6.88055 48.1279 7.01758 48.2513 7.19647C48.3746 7.37535 48.4406 7.58758 48.4403 7.80489C48.4557 8.06878 48.3662 8.32806 48.1915 8.52637C48.0167 8.72468 47.7707 8.84597 47.507 8.86389ZM47.8467 6.87431C47.7519 6.79533 47.63 6.75646 47.507 6.76597C47.3858 6.75698 47.2659 6.79587 47.173 6.87431C46.9901 7.1478 46.9139 7.47894 46.959 7.80489C46.959 8.3758 47.0303 8.59555 47.173 8.73272C47.2655 8.81198 47.3854 8.85189 47.507 8.84389C47.6304 8.85241 47.7522 8.81253 47.8467 8.73272C47.9895 8.59555 48.058 8.3758 48.058 7.80489C48.1036 7.4793 48.0284 7.14829 47.8467 6.87431Z" fill="black"/>
<path d="M51.3151 7.35708C51.3189 7.28606 51.308 7.21503 51.283 7.14845C51.258 7.08187 51.2195 7.02118 51.1699 6.97022C51.1203 6.91927 51.0606 6.87913 50.9947 6.85236C50.9289 6.82559 50.8582 6.81275 50.7871 6.81466H50.4816C50.4701 6.81466 50.4649 6.81749 50.4649 6.82607V7.76532H50.5476C50.5963 7.76828 50.6451 7.76125 50.691 7.74466C50.7368 7.72807 50.7788 7.70227 50.8143 7.66886C50.8498 7.63544 50.8782 7.59512 50.8975 7.55035C50.9169 7.50559 50.9269 7.45734 50.9269 7.40858C50.9269 7.40283 50.9467 7.40283 50.9467 7.40858V8.14507C50.9467 8.15066 50.9269 8.15066 50.9269 8.14507C50.9267 8.09632 50.9165 8.04812 50.897 8.00342C50.8776 7.95871 50.8492 7.91844 50.8137 7.88505C50.7782 7.85166 50.7362 7.82584 50.6904 7.80919C50.6446 7.79253 50.5958 7.78538 50.5471 7.78816H50.4644V8.78158C50.4644 8.78991 50.4701 8.79299 50.4811 8.79299H50.7351C50.7408 8.79299 50.7408 8.81583 50.7351 8.81583H49.8421C49.8365 8.81583 49.8365 8.79299 49.8421 8.79299H50.0936C50.105 8.79299 50.1102 8.79016 50.1102 8.78158V6.82607C50.1102 6.81774 50.1046 6.81466 50.0936 6.81466H49.8423C49.8366 6.81466 49.8366 6.79199 49.8423 6.79199H51.3294C51.3315 6.79216 51.3336 6.7931 51.3351 6.79462C51.3366 6.79615 51.3376 6.79817 51.3377 6.80033V7.35691C51.338 7.36574 51.3151 7.36574 51.3151 7.35708Z" fill="black"/>
<path d="M13.4376 11.3176C13.4376 8.89344 12.1954 6.70386 8.88264 6.70386H5.54414C5.41472 6.70386 5.36289 6.75594 5.36289 6.80803V15.5403H6.52756C8.64972 15.5403 9.81439 14.3673 9.81439 12.5689C9.81439 12.5166 9.91797 12.5166 9.91797 12.5689V18.6164C9.91885 18.6237 9.91817 18.6311 9.91597 18.6382C9.91378 18.6452 9.91011 18.6517 9.90521 18.6572C9.90032 18.6627 9.89431 18.6672 9.88758 18.6702C9.88085 18.6732 9.87356 18.6748 9.86618 18.6748C9.8588 18.6748 9.85151 18.6732 9.84478 18.6702C9.83805 18.6672 9.83204 18.6627 9.82715 18.6572C9.82225 18.6517 9.81859 18.6452 9.81639 18.6382C9.81419 18.6311 9.81351 18.6237 9.81439 18.6164C9.81439 16.8437 8.64972 15.6445 6.52756 15.6445H5.36289V24.8719C5.36289 24.95 5.41472 24.9763 5.54414 24.9763H7.87339C7.92514 24.9763 7.92514 25.0806 7.87339 25.0806H0.0573047C0.00563802 25.0806 0.00563802 24.9763 0.0573047 24.9763H2.38664C2.49014 24.9763 2.54197 24.95 2.54197 24.8719V6.80803C2.54197 6.75594 2.49014 6.70386 2.38664 6.70386H0.0573047C0.00563802 6.70386 0.00563802 6.59961 0.0573047 6.59961H13.4636C13.4839 6.60095 13.503 6.60965 13.5173 6.62406C13.5316 6.63846 13.5401 6.6576 13.5413 6.67786V11.3176C13.5422 11.325 13.5416 11.3324 13.5394 11.3395C13.5372 11.3466 13.5336 11.3532 13.5287 11.3587C13.5238 11.3643 13.5177 11.3688 13.511 11.3718C13.5042 11.3749 13.4969 11.3764 13.4895 11.3764C13.4821 11.3764 13.4747 11.3749 13.468 11.3718C13.4612 11.3688 13.4552 11.3643 13.4503 11.3587C13.4454 11.3532 13.4417 11.3466 13.4395 11.3395C13.4373 11.3324 13.4367 11.325 13.4376 11.3176Z" fill="black"/>
<path d="M17.4133 25.0271C17.3749 25.0271 17.3749 24.9504 17.4133 24.9504H19.1408C19.2176 24.9504 19.256 24.9315 19.256 24.8736V11.5716C19.256 11.5332 19.2176 11.4947 19.1408 11.4947H17.4133C17.3749 11.4947 17.3749 11.418 17.4133 11.418H23.2103C23.2488 11.418 23.2488 11.4947 23.2103 11.4947H21.4827C21.3866 11.4947 21.3483 11.5332 21.3483 11.5716V24.8736C21.3483 24.9315 21.3866 24.9504 21.4827 24.9504H23.2103C23.2488 24.9504 23.2488 25.0271 23.2103 25.0271H17.4133Z" fill="black"/>
<path d="M36.7041 11.4947C36.6273 11.4947 36.5889 11.5332 36.5889 11.5716V25.2765C36.5889 25.3344 36.5313 25.3536 36.4738 25.2765L27.2988 11.6098V24.8736C27.2988 24.9315 27.3372 24.9504 27.414 24.9504H29.1415C29.1798 24.9504 29.1798 25.0271 29.1415 25.0271H25.3602C25.3218 25.0271 25.3218 24.9504 25.3602 24.9504H27.0876C27.1645 24.9504 27.2029 24.9315 27.2029 24.8736V11.5716C27.2029 11.5332 27.1645 11.4947 27.0876 11.4947H25.3602C25.3218 11.4947 25.3218 11.418 25.3602 11.418H29.4487C29.5831 11.418 29.6981 11.4947 29.871 11.7635L36.4931 21.649V11.5716C36.4931 11.5332 36.4548 11.4947 36.3781 11.4947H34.6502C34.6118 11.4947 34.6118 11.418 34.6502 11.418H38.4316C38.4701 11.418 38.4701 11.4947 38.4316 11.4947H36.7041Z" fill="black"/>
<path d="M51.4841 25.0271H40.5046C40.4662 25.0271 40.4662 24.9504 40.5046 24.9504H42.2321C42.3089 24.9504 42.3473 24.9315 42.3473 24.8736V11.5716C42.3473 11.5332 42.3089 11.4947 42.2321 11.4947H40.5046C40.4662 11.4947 40.4662 11.418 40.5046 11.418H50.4476C50.4626 11.4188 50.4767 11.4252 50.4873 11.4358C50.4979 11.4465 50.5042 11.4606 50.5051 11.4756V14.8923C50.5057 14.8977 50.5051 14.9032 50.5035 14.9084C50.5019 14.9135 50.4991 14.9183 50.4955 14.9224C50.4919 14.9264 50.4875 14.9297 50.4825 14.9319C50.4775 14.9341 50.4722 14.9353 50.4667 14.9353C50.4613 14.9353 50.4559 14.9341 50.4509 14.9319C50.446 14.9297 50.4416 14.9264 50.4379 14.9224C50.4343 14.9183 50.4316 14.9135 50.4299 14.9084C50.4283 14.9032 50.4278 14.8977 50.4284 14.8923C50.4284 13.1073 49.507 11.4948 47.0691 11.4948H44.574C44.4971 11.4948 44.4588 11.5333 44.4588 11.5716V18.0019H45.4953C47.0691 18.0019 47.9331 17.1383 47.9331 15.8137C47.9331 15.7753 48.0098 15.7753 48.0098 15.8137V20.2666C48.0105 20.272 48.01 20.2775 48.0084 20.2827C48.0067 20.288 48.004 20.2928 48.0004 20.2969C47.9968 20.301 47.9923 20.3043 47.9873 20.3065C47.9823 20.3088 47.9769 20.31 47.9714 20.31C47.966 20.31 47.9605 20.3088 47.9555 20.3065C47.9506 20.3043 47.9461 20.301 47.9425 20.2969C47.9388 20.2928 47.9361 20.288 47.9345 20.2827C47.9329 20.2775 47.9324 20.272 47.9331 20.2666C47.9331 18.9613 47.0691 18.0786 45.4953 18.0786H44.4588V24.8735C44.4588 24.9313 44.4971 24.9502 44.574 24.9502H47.1269C50.3519 24.9502 51.465 23.146 51.465 21.1686C51.465 21.1302 51.5417 21.1302 51.5417 21.1686V24.9695C51.5429 24.9773 51.5422 24.9853 51.5397 24.9928C51.5372 25.0003 51.533 25.0071 51.5274 25.0127C51.5218 25.0183 51.515 25.0226 51.5075 25.0251C51.5 25.0276 51.492 25.0283 51.4841 25.0271Z" fill="black"/>
<path d="M80.8577 6.82927C80.7067 6.82927 80.5557 6.9301 80.2283 7.88677L74.3117 24.9576C74.3029 24.9693 74.2915 24.9789 74.2784 24.9854C74.2653 24.992 74.2508 24.9954 74.2361 24.9954C74.2215 24.9954 74.207 24.992 74.1939 24.9854C74.1808 24.9789 74.1694 24.9693 74.1606 24.9576L69.2758 11.8146L64.6936 24.9578C64.6686 25.0585 64.5927 25.0336 64.5676 24.9578L57.3666 6.93035C57.3449 6.89731 57.3148 6.87059 57.2794 6.85289C57.244 6.83519 57.2046 6.82713 57.1651 6.82952H54.8737C54.8666 6.83033 54.8594 6.82964 54.8526 6.82749C54.8458 6.82533 54.8395 6.82176 54.8342 6.81701C54.8289 6.81225 54.8246 6.80642 54.8217 6.79991C54.8188 6.79339 54.8173 6.78633 54.8173 6.77918C54.8173 6.77204 54.8188 6.76498 54.8217 6.75846C54.8246 6.75194 54.8289 6.74611 54.8342 6.74136C54.8395 6.73661 54.8458 6.73303 54.8526 6.73088C54.8594 6.72872 54.8666 6.72803 54.8737 6.72885H62.8301C62.8801 6.72885 62.8801 6.82952 62.8301 6.82952H60.4884C60.3624 6.82952 60.3374 6.87993 60.3624 6.93035L65.9521 21.1053L69.2001 11.6637L67.4377 6.93035C67.4377 6.87993 67.2612 6.82952 67.2359 6.82952H65.3226C65.2726 6.82952 65.2726 6.72885 65.3226 6.72885H73.1783C73.2283 6.72885 73.2283 6.82952 73.1783 6.82952H70.4592C70.3329 6.82952 70.3079 6.87993 70.3329 6.93035L75.52 21.2063L80.1527 7.76126C80.4549 6.93035 80.4549 6.82952 80.2787 6.82952H77.862C77.8113 6.82952 77.8113 6.72885 77.862 6.72885H82.9482C82.9982 6.72885 82.9982 6.82952 82.9482 6.82952L80.8577 6.82927Z" fill="black"/>
<path d="M82.4191 25.0998C82.3807 25.0998 82.3807 25.0227 82.4191 25.0227H84.1537C84.2306 25.0227 84.2691 25.0035 84.2691 24.9456V11.5895C84.2691 11.5511 84.2306 11.5125 84.1537 11.5125H82.4191C82.3807 11.5125 82.3807 11.4355 82.4191 11.4355H88.2395C88.2781 11.4355 88.2781 11.5125 88.2395 11.5125H86.5049C86.4086 11.5125 86.3699 11.5511 86.3699 11.5895V24.9456C86.3699 25.0035 86.4086 25.0227 86.5049 25.0227H88.2395C88.2781 25.0227 88.2781 25.0998 88.2395 25.0998H82.4191Z" fill="black"/>
<path d="M101.788 11.5125C101.711 11.5125 101.672 11.5511 101.672 11.5895V25.3505C101.672 25.4088 101.614 25.4275 101.557 25.3505L92.3445 11.6282V24.9456C92.3445 25.0035 92.383 25.0227 92.46 25.0227H94.1946C94.2333 25.0227 94.2333 25.0998 94.1946 25.0998H90.398C90.3594 25.0998 90.3594 25.0227 90.398 25.0227H92.1323C92.2094 25.0227 92.2479 25.0035 92.2479 24.9456V11.5895C92.2479 11.5511 92.2094 11.5125 92.1323 11.5125H90.398C90.3594 11.5125 90.3594 11.4355 90.398 11.4355H94.503C94.6379 11.4355 94.753 11.5125 94.927 11.7823L101.576 21.708V11.5895C101.576 11.5511 101.537 11.5125 101.46 11.5125H99.7258C99.6872 11.5125 99.6872 11.4355 99.7258 11.4355H103.522C103.561 11.4355 103.561 11.5125 103.522 11.5125H101.788Z" fill="black"/>
<path d="M116.627 25.0998H105.603C105.565 25.0998 105.565 25.0227 105.603 25.0227H107.338C107.415 25.0227 107.454 25.0035 107.454 24.9456V11.5895C107.454 11.5511 107.415 11.5125 107.338 11.5125H105.603C105.565 11.5125 105.565 11.4355 105.603 11.4355H115.587C115.602 11.4364 115.616 11.4428 115.627 11.4534C115.637 11.4641 115.644 11.4783 115.645 11.4933V14.9237C115.645 14.9292 115.645 14.9347 115.643 14.94C115.642 14.9452 115.639 14.9501 115.635 14.9542C115.632 14.9583 115.627 14.9616 115.622 14.9639C115.617 14.9661 115.612 14.9673 115.606 14.9673C115.601 14.9673 115.595 14.9661 115.59 14.9639C115.585 14.9616 115.581 14.9583 115.577 14.9542C115.573 14.9501 115.571 14.9452 115.569 14.94C115.567 14.9347 115.567 14.9292 115.568 14.9237C115.568 13.1315 114.642 11.5125 112.195 11.5125H109.689C109.612 11.5125 109.574 11.5511 109.574 11.5895V18.0461H110.615C112.195 18.0461 113.062 17.1785 113.062 15.8489C113.062 15.8104 113.139 15.8104 113.139 15.8489V20.32C113.14 20.3255 113.139 20.331 113.138 20.3363C113.136 20.3415 113.133 20.3463 113.13 20.3505C113.126 20.3546 113.122 20.3579 113.117 20.3601C113.112 20.3624 113.106 20.3635 113.101 20.3635C113.095 20.3635 113.09 20.3624 113.085 20.3601C113.08 20.3579 113.075 20.3546 113.072 20.3505C113.068 20.3463 113.065 20.3415 113.064 20.3363C113.062 20.331 113.061 20.3255 113.062 20.32C113.062 19.0095 112.195 18.1229 110.615 18.1229H109.574V24.9456C109.574 25.0035 109.612 25.0227 109.689 25.0227H112.253C115.49 25.0227 116.608 23.2114 116.608 21.2257C116.608 21.1872 116.685 21.1872 116.685 21.2257V25.0424C116.686 25.0502 116.685 25.0582 116.683 25.0656C116.68 25.0731 116.676 25.0799 116.67 25.0855C116.665 25.091 116.658 25.0952 116.651 25.0977C116.643 25.1002 116.635 25.1009 116.627 25.0998Z" fill="black"/>
</g>
<defs>
<clipPath id="clip0_23_7967">
<rect width="116.667" height="32" fill="white" transform="translate(0.0185547)"/>
</clipPath>
</defs>
</svg>
